<svg width="1374" height="915" viewBox="0 0 1374 915" fill="none" xmlns="http://www.w3.org/2000/svg">
<g clip-path="url(#clip0_7574_3734)">
<rect width="1374" height="915" fill="black"/>
<path d="M248.101 233C248.35 233.095 248.615 233.142 248.881 233.14H256.881C257.412 233.14 257.92 232.929 258.295 232.554C258.67 232.179 258.881 231.671 258.881 231.14C258.881 230.61 258.67 230.101 258.295 229.726C257.92 229.351 257.412 229.14 256.881 229.14H253.701L260.281 222.56C260.491 222.381 260.661 222.16 260.781 221.912C260.901 221.664 260.968 221.394 260.979 221.118C260.989 220.843 260.943 220.568 260.842 220.311C260.742 220.055 260.589 219.822 260.394 219.627C260.2 219.432 259.966 219.279 259.71 219.179C259.453 219.078 259.179 219.032 258.903 219.043C258.628 219.053 258.357 219.121 258.109 219.241C257.861 219.361 257.64 219.531 257.461 219.74L250.881 226.3V223.12C250.881 222.59 250.67 222.081 250.295 221.706C249.92 221.331 249.412 221.12 248.881 221.12C248.351 221.12 247.842 221.331 247.467 221.706C247.092 222.081 246.881 222.59 246.881 223.12V231.12C246.879 231.387 246.926 231.651 247.021 231.9C247.119 232.146 247.266 232.37 247.451 232.558C247.636 232.747 247.857 232.897 248.101 233V233ZM255.881 241C255.441 241 254.981 240.86 254.541 240.76C253.65 240.564 252.775 240.303 251.921 239.98C250.993 239.643 249.973 239.66 249.058 240.029C248.142 240.399 247.395 241.093 246.961 241.98L246.521 242.88C244.573 241.796 242.783 240.451 241.201 238.88C239.631 237.298 238.285 235.508 237.201 233.56L238.041 233C238.928 232.566 239.623 231.819 239.992 230.903C240.361 229.988 240.379 228.968 240.041 228.04C239.724 227.185 239.463 226.31 239.261 225.42C239.161 224.98 239.081 224.52 239.021 224.06C238.778 222.651 238.04 221.376 236.94 220.463C235.84 219.55 234.451 219.059 233.021 219.08H227.021C226.159 219.072 225.306 219.25 224.519 219.601C223.732 219.953 223.029 220.469 222.46 221.117C221.891 221.764 221.467 222.526 221.219 223.352C220.971 224.177 220.903 225.046 221.021 225.9C222.087 234.279 225.913 242.064 231.896 248.025C237.88 253.987 245.679 257.785 254.061 258.82H254.821C256.296 258.822 257.72 258.281 258.821 257.3C259.454 256.734 259.959 256.04 260.304 255.265C260.649 254.489 260.825 253.649 260.821 252.8V246.8C260.797 245.411 260.291 244.073 259.39 243.015C258.489 241.958 257.249 241.245 255.881 241V241ZM256.881 253C256.881 253.284 256.82 253.565 256.703 253.823C256.585 254.082 256.415 254.313 256.201 254.5C255.978 254.693 255.716 254.837 255.434 254.923C255.152 255.009 254.854 255.036 254.561 255C247.071 254.04 240.114 250.613 234.787 245.261C229.46 239.908 226.066 232.935 225.141 225.44C225.109 225.147 225.137 224.851 225.223 224.569C225.309 224.287 225.451 224.025 225.641 223.8C225.829 223.587 226.059 223.416 226.318 223.299C226.577 223.181 226.857 223.12 227.141 223.12H233.141C233.606 223.11 234.06 223.262 234.425 223.55C234.791 223.839 235.044 224.245 235.141 224.7C235.221 225.247 235.321 225.787 235.441 226.32C235.672 227.374 235.98 228.41 236.361 229.42L233.561 230.72C233.322 230.83 233.106 230.986 232.927 231.179C232.749 231.373 232.61 231.599 232.519 231.846C232.427 232.094 232.386 232.356 232.397 232.62C232.408 232.883 232.47 233.141 232.581 233.38C235.46 239.546 240.416 244.502 246.581 247.38C247.068 247.58 247.614 247.58 248.101 247.38C248.351 247.291 248.58 247.153 248.776 246.974C248.971 246.796 249.13 246.58 249.241 246.34L250.481 243.54C251.515 243.91 252.57 244.217 253.641 244.46C254.175 244.58 254.715 244.68 255.261 244.76C255.716 244.858 256.123 245.111 256.411 245.476C256.699 245.841 256.852 246.295 256.841 246.76L256.881 253Z" fill="white"/>
<path d="M267.918 384.847C268.021 381.627 267.369 378.43 266.022 375.555C265.109 374.375 263.84 373.579 262.439 373.305C256.642 372.737 250.821 372.504 245.001 372.607C239.203 372.499 233.403 372.725 227.626 373.282C226.484 373.507 225.428 374.085 224.585 374.947C222.71 376.815 222.501 380.01 222.293 382.71C221.991 387.564 221.991 392.435 222.293 397.29C222.353 398.81 222.563 400.318 222.918 401.79C223.169 402.926 223.678 403.978 224.397 404.85C225.246 405.758 226.327 406.369 227.501 406.605C231.993 407.204 236.519 407.452 241.043 407.347C248.335 407.46 254.731 407.347 262.293 406.717C263.496 406.496 264.608 405.884 265.481 404.962C266.064 404.332 266.5 403.561 266.751 402.712C267.496 400.243 267.862 397.659 267.835 395.062C267.918 393.802 267.918 386.197 267.918 384.847ZM240.293 396.412V382.485L252.626 389.482C249.168 391.552 244.606 393.892 240.293 396.412Z" fill="white"/>
<path d="M244.999 298.833C242.289 298.743 239.588 299.158 237.057 300.053C234.526 300.947 232.218 302.304 230.272 304.041C228.325 305.778 226.781 307.859 225.732 310.159C224.683 312.459 224.15 314.931 224.166 317.425C224.131 320.015 224.696 322.582 225.824 324.955C226.952 327.328 228.617 329.452 230.707 331.187C230.873 331.323 231.008 331.488 231.105 331.672C231.201 331.856 231.257 332.056 231.27 332.26V335.672C231.281 335.923 231.359 336.168 231.496 336.386C231.634 336.604 231.826 336.788 232.058 336.922C232.29 337.055 232.553 337.136 232.826 337.155C233.099 337.174 233.373 337.132 233.624 337.033L237.791 335.365C238.146 335.242 238.539 335.242 238.895 335.365C240.864 335.854 242.896 336.099 244.936 336.093C250.307 336.101 255.461 334.146 259.264 330.657C263.068 327.169 265.209 322.433 265.218 317.492C265.226 312.551 263.1 307.81 259.309 304.31C255.517 300.811 250.37 298.841 244.999 298.833V298.833ZM257.499 313.132L251.395 322.063C251.165 322.4 250.861 322.688 250.503 322.911C250.146 323.134 249.742 323.287 249.317 323.359C248.892 323.431 248.456 323.421 248.035 323.33C247.615 323.239 247.219 323.069 246.874 322.83L241.999 319.476C241.783 319.327 241.519 319.246 241.249 319.246C240.978 319.246 240.715 319.327 240.499 319.476L233.916 324.076C233.732 324.206 233.505 324.272 233.273 324.263C233.042 324.253 232.822 324.168 232.652 324.023C232.482 323.879 232.374 323.683 232.346 323.472C232.318 323.26 232.372 323.047 232.499 322.868L238.603 313.937C238.833 313.601 239.137 313.312 239.494 313.089C239.852 312.866 240.256 312.714 240.681 312.642C241.106 312.57 241.542 312.579 241.963 312.67C242.383 312.761 242.779 312.931 243.124 313.17L247.999 316.524C248.215 316.674 248.478 316.754 248.749 316.754C249.019 316.754 249.283 316.674 249.499 316.524L256.082 311.924C256.266 311.794 256.493 311.728 256.724 311.738C256.956 311.747 257.176 311.832 257.346 311.977C257.516 312.122 257.624 312.317 257.652 312.529C257.68 312.74 257.626 312.954 257.499 313.132Z" fill="white"/>
<path d="M168.794 502.833H134.208C133.82 502.828 133.433 502.895 133.072 503.03C132.711 503.165 132.382 503.366 132.103 503.62C131.824 503.875 131.602 504.178 131.448 504.513C131.294 504.849 131.212 505.209 131.207 505.574V538.426C131.212 538.791 131.294 539.151 131.448 539.486C131.602 539.822 131.824 540.125 132.103 540.38C132.382 540.634 132.711 540.835 133.072 540.97C133.433 541.105 133.82 541.172 134.208 541.167H168.794C169.183 541.172 169.569 541.105 169.93 540.97C170.291 540.835 170.621 540.634 170.899 540.38C171.178 540.125 171.401 539.822 171.554 539.486C171.708 539.151 171.79 538.791 171.795 538.426V505.574C171.79 505.209 171.708 504.849 171.554 504.513C171.401 504.178 171.178 503.875 170.899 503.62C170.621 503.366 170.291 503.165 169.93 503.03C169.569 502.895 169.183 502.828 168.794 502.833V502.833ZM143.518 534.918H137.393V517.668H143.518V534.918ZM140.456 515.253C139.611 515.253 138.801 514.938 138.204 514.378C137.606 513.817 137.271 513.056 137.271 512.263C137.271 511.47 137.606 510.71 138.204 510.149C138.801 509.588 139.611 509.273 140.456 509.273C140.904 509.226 141.359 509.267 141.789 509.396C142.219 509.524 142.615 509.737 142.952 510.019C143.289 510.301 143.558 510.647 143.743 511.034C143.927 511.42 144.022 511.839 144.022 512.263C144.022 512.687 143.927 513.106 143.743 513.493C143.558 513.88 143.289 514.225 142.952 514.508C142.615 514.79 142.219 515.002 141.789 515.131C141.359 515.259 140.904 515.301 140.456 515.253V515.253ZM165.609 534.918H159.484V525.661C159.484 523.342 158.606 521.827 156.381 521.827C155.692 521.832 155.021 522.035 154.459 522.409C153.897 522.782 153.47 523.308 153.237 523.917C153.077 524.367 153.008 524.842 153.032 525.316V534.899H146.907C146.907 534.899 146.907 519.221 146.907 517.649H153.032V520.083C153.589 519.177 154.398 518.43 155.373 517.924C156.348 517.417 157.452 517.17 158.565 517.208C162.649 517.208 165.609 519.681 165.609 524.99V534.918Z" fill="white"/>
<path d="M269.915 462.6C268.381 463.253 266.758 463.684 265.097 463.88C266.849 462.855 268.162 461.242 268.792 459.34C267.146 460.301 265.344 460.977 263.464 461.34C262.207 460.006 260.534 459.117 258.706 458.814C256.879 458.511 255 458.811 253.365 459.667C251.73 460.522 250.432 461.885 249.673 463.542C248.914 465.199 248.738 467.055 249.172 468.82C245.843 468.655 242.587 467.806 239.614 466.328C236.642 464.85 234.021 462.776 231.92 460.24C231.183 461.501 230.796 462.928 230.797 464.38C230.794 465.729 231.132 467.058 231.781 468.248C232.429 469.437 233.368 470.452 234.513 471.2C233.182 471.165 231.879 470.815 230.715 470.18V470.28C230.725 472.17 231.401 473.999 232.629 475.456C233.857 476.914 235.561 477.912 237.453 478.28C236.725 478.498 235.968 478.612 235.207 478.62C234.68 478.614 234.154 478.568 233.635 478.48C234.174 480.106 235.216 481.527 236.618 482.545C238.019 483.563 239.71 484.128 241.455 484.16C238.509 486.431 234.872 487.67 231.124 487.68C230.441 487.683 229.759 487.643 229.082 487.56C232.909 489.981 237.369 491.266 241.924 491.26C245.068 491.292 248.186 490.71 251.098 489.549C254.009 488.387 256.655 486.668 258.881 484.493C261.106 482.319 262.867 479.731 264.061 476.882C265.255 474.033 265.857 470.98 265.832 467.9C265.832 467.56 265.832 467.2 265.832 466.84C267.434 465.67 268.816 464.235 269.915 462.6V462.6Z" fill="white"/>
<path d="M268.738 555.618L256.305 535.397H242.693L255.127 555.618H268.738ZM241.514 537.315L229.082 557.534L235.888 568.602L248.32 548.383L241.514 537.315ZM245.052 557.534L238.247 568.602H263.11L269.915 557.534L245.052 557.534Z" fill="white"/>
<path d="M132.248 268.648H134.962C135.682 268.648 136.372 268.388 136.881 267.926C137.39 267.465 137.676 266.839 137.676 266.186C137.676 265.533 137.39 264.907 136.881 264.445C136.372 263.984 135.682 263.724 134.962 263.724H132.248C131.529 263.724 130.838 263.984 130.33 264.445C129.821 264.907 129.535 265.533 129.535 266.186C129.535 266.839 129.821 267.465 130.33 267.926C130.838 268.388 131.529 268.648 132.248 268.648V268.648ZM132.248 273.571C131.529 273.571 130.838 273.83 130.33 274.292C129.821 274.754 129.535 275.38 129.535 276.033C129.535 276.685 129.821 277.312 130.33 277.773C130.838 278.235 131.529 278.494 132.248 278.494H148.531C149.251 278.494 149.941 278.235 150.45 277.773C150.959 277.312 151.245 276.685 151.245 276.033C151.245 275.38 150.959 274.754 150.45 274.292C149.941 273.83 149.251 273.571 148.531 273.571H132.248ZM162.1 266.038C162.071 265.812 162.017 265.589 161.937 265.373V265.152C161.806 264.899 161.632 264.666 161.421 264.463V264.463L145.139 249.693C144.914 249.501 144.658 249.343 144.379 249.225C144.298 249.214 144.216 249.214 144.135 249.225C143.859 249.081 143.554 248.989 143.239 248.954H126.821C124.662 248.954 122.591 249.732 121.064 251.117C119.537 252.502 118.68 254.38 118.68 256.339V290.803C118.68 292.761 119.537 294.64 121.064 296.025C122.591 297.41 124.662 298.188 126.821 298.188H153.958C156.118 298.188 158.188 297.41 159.715 296.025C161.242 294.64 162.1 292.761 162.1 290.803V266.186C162.1 266.186 162.1 266.186 162.1 266.038ZM145.817 257.348L152.846 263.724H148.531C147.811 263.724 147.121 263.465 146.612 263.003C146.103 262.541 145.817 261.915 145.817 261.262V257.348ZM156.672 290.803C156.672 291.455 156.386 292.082 155.877 292.543C155.368 293.005 154.678 293.264 153.958 293.264H126.821C126.101 293.264 125.411 293.005 124.902 292.543C124.393 292.082 124.107 291.455 124.107 290.803V256.339C124.107 255.686 124.393 255.06 124.902 254.598C125.411 254.137 126.101 253.877 126.821 253.877H140.39V261.262C140.39 263.221 141.247 265.1 142.774 266.484C144.301 267.869 146.372 268.648 148.531 268.648H156.672V290.803ZM148.531 283.418H132.248C131.529 283.418 130.838 283.677 130.33 284.139C129.821 284.6 129.535 285.226 129.535 285.879C129.535 286.532 129.821 287.158 130.33 287.62C130.838 288.082 131.529 288.341 132.248 288.341H148.531C149.251 288.341 149.941 288.082 150.45 287.62C150.959 287.158 151.245 286.532 151.245 285.879C151.245 285.226 150.959 284.6 150.45 284.139C149.941 283.677 149.251 283.418 148.531 283.418Z" fill="white"/>
<path d="M303.505 488.483C307.862 528.773 299.316 569.996 286.209 608.331C275.629 639.276 262.217 688.439 221.024 707.434C183.252 724.851 122.687 690.16 95.2197 672.904C17.6913 624.2 1.43969 543.898 1.72695 479.283C2.10224 394.864 20.6936 306.726 64.8203 229.652C91.9154 182.326 163.675 107.441 256.479 118.131C287.012 121.648 314.178 136.362 328.972 154.969C367.517 203.448 375.268 265.973 379.744 317.967C389.179 427.578 356.535 533.242 311.237 634.702" stroke="#E6A015" stroke-width="3" stroke-linecap="round"/>
<rect x="830" y="425" width="398" height="46" rx="7" fill="#F1BF1E"/>
<rect x="830" y="425" width="398" height="46" rx="7" stroke="#1B1B1B" stroke-width="2"/>
<path d="M843.99 448.88C843.99 448.172 844.242 447.608 844.746 447.188C845.25 446.768 845.832 446.558 846.492 446.558C847.164 446.558 847.806 446.678 848.418 446.918C849.03 447.158 849.336 447.476 849.336 447.872C849.336 448.076 849.258 448.238 849.102 448.358C848.946 448.478 848.808 448.538 848.688 448.538C848.58 448.538 848.49 448.538 848.418 448.538C848.358 448.526 848.118 448.412 847.698 448.196C847.29 447.98 846.912 447.872 846.564 447.872C846.216 447.872 845.916 447.962 845.664 448.142C845.424 448.31 845.304 448.562 845.304 448.898C845.304 449.234 845.442 449.498 845.718 449.69C846.006 449.882 846.504 450.05 847.212 450.194C847.92 450.326 848.46 450.518 848.832 450.77C849.216 451.022 849.408 451.49 849.408 452.174C849.408 453.17 849.144 453.878 848.616 454.298C848.1 454.706 847.47 454.91 846.726 454.91C845.982 454.91 845.346 454.808 844.818 454.604C844.302 454.4 844.044 454.094 844.044 453.686C844.044 453.218 844.278 452.984 844.746 452.984C844.866 452.984 845.13 453.068 845.538 453.236C845.946 453.404 846.348 453.488 846.744 453.488C847.152 453.488 847.458 453.362 847.662 453.11C847.878 452.846 847.986 452.546 847.986 452.21C847.986 451.874 847.848 451.634 847.572 451.49C847.296 451.334 846.876 451.208 846.312 451.112C845.748 451.016 845.334 450.914 845.07 450.806C844.35 450.518 843.99 449.876 843.99 448.88ZM853.382 446.666C854.018 446.666 854.624 446.852 855.2 447.224C855.776 447.596 856.064 448.058 856.064 448.61C856.064 449.15 855.83 449.678 855.362 450.194C854.894 450.698 854.27 451.004 853.49 451.112C853.154 451.16 852.65 451.184 851.978 451.184C852.11 452.204 852.368 452.876 852.752 453.2C852.872 453.332 853.034 453.398 853.238 453.398C853.982 453.398 854.606 453.164 855.11 452.696C855.614 452.216 855.974 451.976 856.19 451.976C856.286 451.976 856.43 452.066 856.622 452.246C856.814 452.426 856.91 452.594 856.91 452.75C856.91 453.062 856.532 453.512 855.776 454.1C855.44 454.376 855.032 454.61 854.552 454.802C854.084 454.982 853.646 455.072 853.238 455.072C852.194 455.072 851.426 454.4 850.934 453.056C850.622 452.228 850.466 451.316 850.466 450.32C850.466 449.324 850.7 448.466 851.168 447.746C851.636 447.026 852.374 446.666 853.382 446.666ZM853.472 447.908C853.016 447.908 852.626 448.166 852.302 448.682C852.182 448.862 852.068 449.27 851.96 449.906C853.64 449.906 854.48 449.492 854.48 448.664C854.48 448.16 854.144 447.908 853.472 447.908ZM858.826 454.442L858.628 447.134C858.628 446.906 858.706 446.72 858.862 446.576C859.018 446.432 859.174 446.36 859.33 446.36C859.714 446.36 859.936 446.522 859.996 446.846C860.044 447.17 860.068 447.506 860.068 447.854C860.716 447.002 861.526 446.576 862.498 446.576C863.986 446.576 864.73 448.274 864.73 451.67C864.73 451.982 864.73 452.456 864.73 453.092C864.73 453.716 864.694 454.172 864.622 454.46C864.538 454.82 864.28 455 863.848 455C863.56 455 863.416 454.808 863.416 454.424L863.434 453.416C863.434 452.024 863.386 451.076 863.29 450.572C863.206 450.056 863.122 449.648 863.038 449.348C862.834 448.7 862.504 448.376 862.048 448.376C861.448 448.376 861.028 448.592 860.788 449.024C860.524 449.492 860.368 450.044 860.32 450.68C860.236 451.796 860.194 452.978 860.194 454.226C860.194 454.466 860.104 454.658 859.924 454.802C859.744 454.946 859.528 455.018 859.276 455.018C858.976 455.018 858.826 454.826 858.826 454.442ZM870.762 446.576L870.744 443.102C870.744 442.454 870.948 442.13 871.356 442.13C871.776 442.13 872.01 442.31 872.058 442.67C872.082 442.826 872.112 443.768 872.148 445.496C872.184 447.224 872.238 448.844 872.31 450.356C872.394 451.868 872.436 453.278 872.436 454.586C872.436 454.946 872.166 455.126 871.626 455.126C871.266 455.126 871.086 454.874 871.086 454.37C870.57 454.778 869.958 454.982 869.25 454.982C868.35 454.982 867.618 454.646 867.054 453.974C866.502 453.302 866.226 452.474 866.226 451.49C866.226 450.506 866.424 449.588 866.82 448.736C867.228 447.872 867.858 447.254 868.71 446.882C869.238 446.654 869.748 446.54 870.24 446.54C870.42 446.54 870.594 446.552 870.762 446.576ZM870.852 449.042C870.768 448.778 870.666 448.58 870.546 448.448C870.426 448.304 870.294 448.22 870.15 448.196C870.018 448.16 869.856 448.142 869.664 448.142C869.472 448.142 869.238 448.214 868.962 448.358C868.686 448.502 868.452 448.736 868.26 449.06C867.876 449.708 867.684 450.392 867.684 451.112C867.684 451.82 867.822 452.402 868.098 452.858C868.386 453.302 868.788 453.524 869.304 453.524C869.832 453.524 870.246 453.266 870.546 452.75C870.846 452.234 870.996 451.574 870.996 450.77C870.996 449.87 870.948 449.294 870.852 449.042ZM883.148 454.262C882.716 454.766 882.17 455.018 881.51 455.018C880.85 455.018 880.28 454.814 879.8 454.406C878.792 453.626 878.288 452.432 878.288 450.824C878.288 449.564 878.636 448.556 879.332 447.8C880.028 447.032 880.886 446.648 881.906 446.648C882.926 446.648 883.622 446.996 883.994 447.692C884.318 448.304 884.48 449.228 884.48 450.464L884.444 451.94C884.444 452.636 884.474 453.602 884.534 454.838C884.606 456.062 884.642 456.986 884.642 457.61C884.642 458.642 884.384 459.398 883.868 459.878C883.364 460.37 882.59 460.616 881.546 460.616C880.922 460.616 880.286 460.484 879.638 460.22C878.99 459.956 878.666 459.65 878.666 459.302C878.666 459.05 878.732 458.858 878.864 458.726C879.008 458.594 879.17 458.528 879.35 458.528C879.53 458.528 879.932 458.66 880.556 458.924C881.192 459.188 881.648 459.32 881.924 459.32C882.788 459.32 883.22 458.612 883.22 457.196C883.22 455.78 883.196 454.802 883.148 454.262ZM883.13 450.464C883.13 449.588 882.998 448.976 882.734 448.628C882.482 448.268 882.08 448.088 881.528 448.088C880.976 448.088 880.532 448.34 880.196 448.844C879.86 449.348 879.692 449.99 879.692 450.77C879.692 451.538 879.848 452.15 880.16 452.606C880.484 453.062 880.976 453.29 881.636 453.29C882.296 453.29 882.722 453.008 882.914 452.444C883.058 451.988 883.13 451.328 883.13 450.464ZM888.5 452.372L888.518 454.226C888.518 454.442 888.416 454.64 888.212 454.82C888.02 455 887.828 455.09 887.636 455.09C887.36 455.09 887.186 454.874 887.114 454.442C887.102 454.346 887.054 453.47 886.97 451.814C886.886 450.146 886.724 448.838 886.484 447.89C886.376 447.434 886.322 447.164 886.322 447.08C886.322 446.684 886.562 446.486 887.042 446.486C887.246 446.486 887.408 446.564 887.528 446.72C887.648 446.876 887.72 447.038 887.744 447.206C887.78 447.362 887.81 447.578 887.834 447.854C887.858 448.13 887.876 448.304 887.888 448.376C888.14 447.776 888.518 447.326 889.022 447.026C889.526 446.726 890.078 446.576 890.678 446.576C891.662 446.576 892.154 446.828 892.154 447.332C892.154 447.584 892.064 447.788 891.884 447.944C891.716 448.088 891.518 448.16 891.29 448.16C890.27 448.16 889.55 448.484 889.13 449.132C888.71 449.78 888.5 450.86 888.5 452.372ZM895.876 446.666C896.512 446.666 897.118 446.852 897.694 447.224C898.27 447.596 898.558 448.058 898.558 448.61C898.558 449.15 898.324 449.678 897.856 450.194C897.388 450.698 896.764 451.004 895.984 451.112C895.648 451.16 895.144 451.184 894.472 451.184C894.604 452.204 894.862 452.876 895.246 453.2C895.366 453.332 895.528 453.398 895.732 453.398C896.476 453.398 897.1 453.164 897.604 452.696C898.108 452.216 898.468 451.976 898.684 451.976C898.78 451.976 898.924 452.066 899.116 452.246C899.308 452.426 899.404 452.594 899.404 452.75C899.404 453.062 899.026 453.512 898.27 454.1C897.934 454.376 897.526 454.61 897.046 454.802C896.578 454.982 896.14 455.072 895.732 455.072C894.688 455.072 893.92 454.4 893.428 453.056C893.116 452.228 892.96 451.316 892.96 450.32C892.96 449.324 893.194 448.466 893.662 447.746C894.13 447.026 894.868 446.666 895.876 446.666ZM895.966 447.908C895.51 447.908 895.12 448.166 894.796 448.682C894.676 448.862 894.562 449.27 894.454 449.906C896.134 449.906 896.974 449.492 896.974 448.664C896.974 448.16 896.638 447.908 895.966 447.908ZM903.228 446.666C903.864 446.666 904.47 446.852 905.046 447.224C905.622 447.596 905.91 448.058 905.91 448.61C905.91 449.15 905.676 449.678 905.208 450.194C904.74 450.698 904.116 451.004 903.336 451.112C903 451.16 902.496 451.184 901.824 451.184C901.956 452.204 902.214 452.876 902.598 453.2C902.718 453.332 902.88 453.398 903.084 453.398C903.828 453.398 904.452 453.164 904.956 452.696C905.46 452.216 905.82 451.976 906.036 451.976C906.132 451.976 906.276 452.066 906.468 452.246C906.66 452.426 906.756 452.594 906.756 452.75C906.756 453.062 906.378 453.512 905.622 454.1C905.286 454.376 904.878 454.61 904.398 454.802C903.93 454.982 903.492 455.072 903.084 455.072C902.04 455.072 901.272 454.4 900.78 453.056C900.468 452.228 900.312 451.316 900.312 450.32C900.312 449.324 900.546 448.466 901.014 447.746C901.482 447.026 902.22 446.666 903.228 446.666ZM903.318 447.908C902.862 447.908 902.472 448.166 902.148 448.682C902.028 448.862 901.914 449.27 901.806 449.906C903.486 449.906 904.326 449.492 904.326 448.664C904.326 448.16 903.99 447.908 903.318 447.908ZM908.438 446.594L909.338 446.612C909.542 446.612 909.656 446.606 909.68 446.594V442.904C909.692 442.7 909.794 442.526 909.986 442.382C910.178 442.238 910.358 442.166 910.526 442.166C910.694 442.166 910.826 442.22 910.922 442.328C911.03 442.436 911.078 442.604 911.066 442.832C911.054 443.06 911.048 444.308 911.048 446.576L913.154 446.504C913.514 446.504 913.694 446.714 913.694 447.134C913.694 447.446 913.598 447.68 913.406 447.836C913.226 447.992 913.028 448.076 912.812 448.088C912.608 448.1 912.404 448.106 912.2 448.106L911.102 448.088C911.102 448.58 911.15 449.552 911.246 451.004C911.354 452.456 911.438 453.398 911.498 453.83C911.558 454.25 911.57 454.526 911.534 454.658C911.498 454.778 911.432 454.862 911.336 454.91C911.18 454.982 910.97 455.018 910.706 455.018C910.442 455.018 910.286 454.874 910.238 454.586C909.998 453.014 909.836 450.854 909.752 448.106C909.644 448.118 909.23 448.124 908.51 448.124C907.79 448.124 907.43 447.914 907.43 447.494C907.43 446.894 907.766 446.594 908.438 446.594ZM915.543 443.624C915.759 443.624 915.963 443.726 916.155 443.93C916.347 444.134 916.443 444.35 916.443 444.578C916.443 444.794 916.335 445.016 916.119 445.244C915.915 445.472 915.699 445.586 915.471 445.586C915.243 445.586 915.033 445.49 914.841 445.298C914.661 445.106 914.571 444.86 914.571 444.56C914.571 443.984 914.883 443.672 915.507 443.624C915.519 443.624 915.531 443.624 915.543 443.624ZM916.299 453.056L916.317 454.316C916.317 454.544 916.227 454.736 916.047 454.892C915.867 455.036 915.675 455.108 915.471 455.108C915.171 455.108 915.015 454.958 915.003 454.658C914.847 450.83 914.769 448.712 914.769 448.304C914.769 447.896 914.787 447.398 914.823 446.81C914.847 446.594 914.985 446.486 915.237 446.486C915.873 446.486 916.233 446.744 916.317 447.26C916.353 447.524 916.371 447.734 916.371 447.89L916.299 449.024V453.056ZM919.244 454.442L919.046 447.134C919.046 446.906 919.124 446.72 919.28 446.576C919.436 446.432 919.592 446.36 919.748 446.36C920.132 446.36 920.354 446.522 920.414 446.846C920.462 447.17 920.486 447.506 920.486 447.854C921.134 447.002 921.944 446.576 922.916 446.576C924.404 446.576 925.148 448.274 925.148 451.67C925.148 451.982 925.148 452.456 925.148 453.092C925.148 453.716 925.112 454.172 925.04 454.46C924.956 454.82 924.698 455 924.266 455C923.978 455 923.834 454.808 923.834 454.424L923.852 453.416C923.852 452.024 923.804 451.076 923.708 450.572C923.624 450.056 923.54 449.648 923.456 449.348C923.252 448.7 922.922 448.376 922.466 448.376C921.866 448.376 921.446 448.592 921.206 449.024C920.942 449.492 920.786 450.044 920.738 450.68C920.654 451.796 920.612 452.978 920.612 454.226C920.612 454.466 920.522 454.658 920.342 454.802C920.162 454.946 919.946 455.018 919.694 455.018C919.394 455.018 919.244 454.826 919.244 454.442ZM932.045 454.262C931.613 454.766 931.067 455.018 930.407 455.018C929.747 455.018 929.177 454.814 928.697 454.406C927.689 453.626 927.185 452.432 927.185 450.824C927.185 449.564 927.533 448.556 928.229 447.8C928.925 447.032 929.783 446.648 930.803 446.648C931.823 446.648 932.519 446.996 932.891 447.692C933.215 448.304 933.377 449.228 933.377 450.464L933.341 451.94C933.341 452.636 933.371 453.602 933.431 454.838C933.503 456.062 933.539 456.986 933.539 457.61C933.539 458.642 933.281 459.398 932.765 459.878C932.261 460.37 931.487 460.616 930.443 460.616C929.819 460.616 929.183 460.484 928.535 460.22C927.887 459.956 927.563 459.65 927.563 459.302C927.563 459.05 927.629 458.858 927.761 458.726C927.905 458.594 928.067 458.528 928.247 458.528C928.427 458.528 928.829 458.66 929.453 458.924C930.089 459.188 930.545 459.32 930.821 459.32C931.685 459.32 932.117 458.612 932.117 457.196C932.117 455.78 932.093 454.802 932.045 454.262ZM932.027 450.464C932.027 449.588 931.895 448.976 931.631 448.628C931.379 448.268 930.977 448.088 930.425 448.088C929.873 448.088 929.429 448.34 929.093 448.844C928.757 449.348 928.589 449.99 928.589 450.77C928.589 451.538 928.745 452.15 929.057 452.606C929.381 453.062 929.873 453.29 930.533 453.29C931.193 453.29 931.619 453.008 931.811 452.444C931.955 451.988 932.027 451.328 932.027 450.464ZM940.429 455.018C940.117 455.018 939.931 454.844 939.871 454.496C939.871 452.072 939.727 449.912 939.439 448.016C939.439 447.776 939.523 447.56 939.691 447.368C939.871 447.176 940.069 447.08 940.285 447.08C940.513 447.08 940.681 447.206 940.789 447.458C941.233 446.87 941.827 446.576 942.571 446.576C943.519 446.576 944.251 447.032 944.767 447.944C945.367 447.08 946.159 446.648 947.143 446.648C948.139 446.648 948.883 447.044 949.375 447.836C949.699 448.328 949.927 448.976 950.059 449.78C950.191 450.584 950.257 451.724 950.257 453.2C950.257 453.776 950.197 454.226 950.077 454.55C949.957 454.862 949.705 455.018 949.321 455.018C949.009 455.018 948.853 454.82 948.853 454.424L948.907 452.174C948.907 449.474 948.205 448.124 946.801 448.124C946.357 448.124 946.045 448.28 945.865 448.592C945.661 448.964 945.541 449.354 945.505 449.762C945.457 450.482 945.433 451.136 945.433 451.724V454.334C945.433 454.526 945.337 454.688 945.145 454.82C944.953 454.952 944.755 455.018 944.551 455.018C944.287 455.018 944.119 454.844 944.047 454.496L944.101 450.77C944.101 449.45 943.879 448.628 943.435 448.304C943.219 448.148 942.889 448.07 942.445 448.07C942.013 448.07 941.689 448.232 941.473 448.556C941.269 448.88 941.167 449.402 941.167 450.122L941.275 453.47C941.275 454.502 940.993 455.018 940.429 455.018ZM954.41 446.666C955.046 446.666 955.652 446.852 956.228 447.224C956.804 447.596 957.092 448.058 957.092 448.61C957.092 449.15 956.858 449.678 956.39 450.194C955.922 450.698 955.298 451.004 954.518 451.112C954.182 451.16 953.678 451.184 953.006 451.184C953.138 452.204 953.396 452.876 953.78 453.2C953.9 453.332 954.062 453.398 954.266 453.398C955.01 453.398 955.634 453.164 956.138 452.696C956.642 452.216 957.002 451.976 957.218 451.976C957.314 451.976 957.458 452.066 957.65 452.246C957.842 452.426 957.938 452.594 957.938 452.75C957.938 453.062 957.56 453.512 956.804 454.1C956.468 454.376 956.06 454.61 955.58 454.802C955.112 454.982 954.674 455.072 954.266 455.072C953.222 455.072 952.454 454.4 951.962 453.056C951.65 452.228 951.494 451.316 951.494 450.32C951.494 449.324 951.728 448.466 952.196 447.746C952.664 447.026 953.402 446.666 954.41 446.666ZM954.5 447.908C954.044 447.908 953.654 448.166 953.33 448.682C953.21 448.862 953.096 449.27 952.988 449.906C954.668 449.906 955.508 449.492 955.508 448.664C955.508 448.16 955.172 447.908 954.5 447.908ZM959.475 448.88C959.475 448.172 959.727 447.608 960.231 447.188C960.735 446.768 961.317 446.558 961.977 446.558C962.649 446.558 963.291 446.678 963.903 446.918C964.515 447.158 964.821 447.476 964.821 447.872C964.821 448.076 964.743 448.238 964.587 448.358C964.431 448.478 964.293 448.538 964.173 448.538C964.065 448.538 963.975 448.538 963.903 448.538C963.843 448.526 963.603 448.412 963.183 448.196C962.775 447.98 962.397 447.872 962.049 447.872C961.701 447.872 961.401 447.962 961.149 448.142C960.909 448.31 960.789 448.562 960.789 448.898C960.789 449.234 960.927 449.498 961.203 449.69C961.491 449.882 961.989 450.05 962.697 450.194C963.405 450.326 963.945 450.518 964.317 450.77C964.701 451.022 964.893 451.49 964.893 452.174C964.893 453.17 964.629 453.878 964.101 454.298C963.585 454.706 962.955 454.91 962.211 454.91C961.467 454.91 960.831 454.808 960.303 454.604C959.787 454.4 959.529 454.094 959.529 453.686C959.529 453.218 959.763 452.984 960.231 452.984C960.351 452.984 960.615 453.068 961.023 453.236C961.431 453.404 961.833 453.488 962.229 453.488C962.637 453.488 962.943 453.362 963.147 453.11C963.363 452.846 963.471 452.546 963.471 452.21C963.471 451.874 963.333 451.634 963.057 451.49C962.781 451.334 962.361 451.208 961.797 451.112C961.233 451.016 960.819 450.914 960.555 450.806C959.835 450.518 959.475 449.876 959.475 448.88ZM966.581 448.88C966.581 448.172 966.833 447.608 967.337 447.188C967.841 446.768 968.423 446.558 969.083 446.558C969.755 446.558 970.397 446.678 971.009 446.918C971.621 447.158 971.927 447.476 971.927 447.872C971.927 448.076 971.849 448.238 971.693 448.358C971.537 448.478 971.399 448.538 971.279 448.538C971.171 448.538 971.081 448.538 971.009 448.538C970.949 448.526 970.709 448.412 970.289 448.196C969.881 447.98 969.503 447.872 969.155 447.872C968.807 447.872 968.507 447.962 968.255 448.142C968.015 448.31 967.895 448.562 967.895 448.898C967.895 449.234 968.033 449.498 968.309 449.69C968.597 449.882 969.095 450.05 969.803 450.194C970.511 450.326 971.051 450.518 971.423 450.77C971.807 451.022 971.999 451.49 971.999 452.174C971.999 453.17 971.735 453.878 971.207 454.298C970.691 454.706 970.061 454.91 969.317 454.91C968.573 454.91 967.937 454.808 967.409 454.604C966.893 454.4 966.635 454.094 966.635 453.686C966.635 453.218 966.869 452.984 967.337 452.984C967.457 452.984 967.721 453.068 968.129 453.236C968.537 453.404 968.939 453.488 969.335 453.488C969.743 453.488 970.049 453.362 970.253 453.11C970.469 452.846 970.577 452.546 970.577 452.21C970.577 451.874 970.439 451.634 970.163 451.49C969.887 451.334 969.467 451.208 968.903 451.112C968.339 451.016 967.925 450.914 967.661 450.806C966.941 450.518 966.581 449.876 966.581 448.88ZM978.403 446.594C978.931 446.594 979.195 447.044 979.195 447.944C979.195 448.04 979.195 448.142 979.195 448.25L979.159 449.51C979.147 449.906 979.141 450.296 979.141 450.68L979.411 454.748C979.411 455.048 979.105 455.198 978.493 455.198C978.457 455.198 978.367 455.198 978.223 455.198C978.091 455.198 977.995 455.144 977.935 455.036C977.887 454.928 977.881 454.796 977.917 454.64C977.965 454.484 977.953 454.31 977.881 454.118C977.329 454.706 976.597 455 975.685 455C973.993 455 973.147 453.692 973.147 451.076C973.147 449.624 973.417 448.526 973.957 447.782C974.509 447.038 975.295 446.666 976.315 446.666C976.795 446.666 977.275 446.75 977.755 446.918C977.911 446.702 978.127 446.594 978.403 446.594ZM976.531 448.232C975.847 448.232 975.337 448.43 975.001 448.826C974.665 449.222 974.497 449.948 974.497 451.004C974.497 452.78 974.977 453.668 975.937 453.668C976.189 453.668 976.465 453.554 976.765 453.326C977.077 453.098 977.293 452.84 977.413 452.552C977.641 451.904 977.755 451.196 977.755 450.428C977.755 449.66 977.659 449.102 977.467 448.754C977.287 448.406 976.975 448.232 976.531 448.232ZM985.776 454.262C985.344 454.766 984.798 455.018 984.138 455.018C983.478 455.018 982.908 454.814 982.428 454.406C981.42 453.626 980.916 452.432 980.916 450.824C980.916 449.564 981.264 448.556 981.96 447.8C982.656 447.032 983.514 446.648 984.534 446.648C985.554 446.648 986.25 446.996 986.622 447.692C986.946 448.304 987.108 449.228 987.108 450.464L987.072 451.94C987.072 452.636 987.102 453.602 987.162 454.838C987.234 456.062 987.27 456.986 987.27 457.61C987.27 458.642 987.012 459.398 986.496 459.878C985.992 460.37 985.218 460.616 984.174 460.616C983.55 460.616 982.914 460.484 982.266 460.22C981.618 459.956 981.294 459.65 981.294 459.302C981.294 459.05 981.36 458.858 981.492 458.726C981.636 458.594 981.798 458.528 981.978 458.528C982.158 458.528 982.56 458.66 983.184 458.924C983.82 459.188 984.276 459.32 984.552 459.32C985.416 459.32 985.848 458.612 985.848 457.196C985.848 455.78 985.824 454.802 985.776 454.262ZM985.758 450.464C985.758 449.588 985.626 448.976 985.362 448.628C985.11 448.268 984.708 448.088 984.156 448.088C983.604 448.088 983.16 448.34 982.824 448.844C982.488 449.348 982.32 449.99 982.32 450.77C982.32 451.538 982.476 452.15 982.788 452.606C983.112 453.062 983.604 453.29 984.264 453.29C984.924 453.29 985.35 453.008 985.542 452.444C985.686 451.988 985.758 451.328 985.758 450.464ZM991.397 446.666C992.033 446.666 992.639 446.852 993.215 447.224C993.791 447.596 994.079 448.058 994.079 448.61C994.079 449.15 993.845 449.678 993.377 450.194C992.909 450.698 992.285 451.004 991.505 451.112C991.169 451.16 990.665 451.184 989.993 451.184C990.125 452.204 990.383 452.876 990.767 453.2C990.887 453.332 991.049 453.398 991.253 453.398C991.997 453.398 992.621 453.164 993.125 452.696C993.629 452.216 993.989 451.976 994.205 451.976C994.301 451.976 994.445 452.066 994.637 452.246C994.829 452.426 994.925 452.594 994.925 452.75C994.925 453.062 994.547 453.512 993.791 454.1C993.455 454.376 993.047 454.61 992.567 454.802C992.099 454.982 991.661 455.072 991.253 455.072C990.209 455.072 989.441 454.4 988.949 453.056C988.637 452.228 988.481 451.316 988.481 450.32C988.481 449.324 988.715 448.466 989.183 447.746C989.651 447.026 990.389 446.666 991.397 446.666ZM991.487 447.908C991.031 447.908 990.641 448.166 990.317 448.682C990.197 448.862 990.083 449.27 989.975 449.906C991.655 449.906 992.495 449.492 992.495 448.664C992.495 448.16 992.159 447.908 991.487 447.908ZM1000.94 446.594L1001.84 446.612C1002.04 446.612 1002.15 446.606 1002.18 446.594V442.904C1002.19 442.7 1002.29 442.526 1002.48 442.382C1002.68 442.238 1002.86 442.166 1003.02 442.166C1003.19 442.166 1003.32 442.22 1003.42 442.328C1003.53 442.436 1003.58 442.604 1003.56 442.832C1003.55 443.06 1003.55 444.308 1003.55 446.576L1005.65 446.504C1006.01 446.504 1006.19 446.714 1006.19 447.134C1006.19 447.446 1006.1 447.68 1005.9 447.836C1005.72 447.992 1005.53 448.076 1005.31 448.088C1005.11 448.1 1004.9 448.106 1004.7 448.106L1003.6 448.088C1003.6 448.58 1003.65 449.552 1003.74 451.004C1003.85 452.456 1003.94 453.398 1004 453.83C1004.06 454.25 1004.07 454.526 1004.03 454.658C1004 454.778 1003.93 454.862 1003.83 454.91C1003.68 454.982 1003.47 455.018 1003.2 455.018C1002.94 455.018 1002.78 454.874 1002.74 454.586C1002.5 453.014 1002.33 450.854 1002.25 448.106C1002.14 448.118 1001.73 448.124 1001.01 448.124C1000.29 448.124 999.928 447.914 999.928 447.494C999.928 446.894 1000.26 446.594 1000.94 446.594ZM1010.04 446.612C1010.9 446.612 1011.61 447.026 1012.16 447.854C1012.73 448.682 1013.01 449.678 1013.01 450.842C1013.01 451.994 1012.72 452.978 1012.15 453.794C1011.58 454.61 1010.83 455.018 1009.88 455.018C1008.94 455.018 1008.19 454.604 1007.61 453.776C1007.03 452.936 1006.75 452.006 1006.75 450.986C1006.75 449.678 1007.01 448.634 1007.54 447.854C1008.1 447.026 1008.94 446.612 1010.04 446.612ZM1009.82 448.088C1009.32 448.088 1008.91 448.352 1008.58 448.88C1008.26 449.408 1008.1 449.966 1008.1 450.554C1008.1 451.466 1008.28 452.162 1008.64 452.642C1009 453.122 1009.4 453.362 1009.86 453.362C1010.68 453.362 1011.2 453.008 1011.43 452.3C1011.52 451.964 1011.57 451.544 1011.57 451.04C1011.57 449.072 1010.99 448.088 1009.82 448.088ZM1023.64 446.594C1024.17 446.594 1024.44 447.044 1024.44 447.944C1024.44 448.04 1024.44 448.142 1024.44 448.25L1024.4 449.51C1024.39 449.906 1024.38 450.296 1024.38 450.68L1024.65 454.748C1024.65 455.048 1024.35 455.198 1023.73 455.198C1023.7 455.198 1023.61 455.198 1023.46 455.198C1023.33 455.198 1023.24 455.144 1023.18 455.036C1023.13 454.928 1023.12 454.796 1023.16 454.64C1023.21 454.484 1023.19 454.31 1023.12 454.118C1022.57 454.706 1021.84 455 1020.93 455C1019.23 455 1018.39 453.692 1018.39 451.076C1018.39 449.624 1018.66 448.526 1019.2 447.782C1019.75 447.038 1020.54 446.666 1021.56 446.666C1022.04 446.666 1022.52 446.75 1023 446.918C1023.15 446.702 1023.37 446.594 1023.64 446.594ZM1021.77 448.232C1021.09 448.232 1020.58 448.43 1020.24 448.826C1019.91 449.222 1019.74 449.948 1019.74 451.004C1019.74 452.78 1020.22 453.668 1021.18 453.668C1021.43 453.668 1021.71 453.554 1022.01 453.326C1022.32 453.098 1022.53 452.84 1022.65 452.552C1022.88 451.904 1023 451.196 1023 450.428C1023 449.66 1022.9 449.102 1022.71 448.754C1022.53 448.406 1022.22 448.232 1021.77 448.232ZM1032.38 452.318C1032.8 452.318 1033.01 452.672 1033.01 453.38C1033.01 453.764 1032.8 454.148 1032.38 454.532C1031.98 454.904 1031.53 455.09 1031.03 455.09C1030.3 455.09 1029.76 454.718 1029.41 453.974C1029.26 454.274 1029.01 454.538 1028.66 454.766C1028.32 454.982 1027.98 455.09 1027.63 455.09C1027.3 455.09 1027 455.024 1026.75 454.892C1026.51 454.748 1026.31 454.538 1026.16 454.262C1026.01 453.986 1025.89 453.722 1025.8 453.47C1025.71 453.206 1025.65 452.888 1025.6 452.516C1025.54 451.916 1025.49 450.956 1025.45 449.636C1025.43 448.304 1025.42 447.038 1025.42 445.838C1025.42 444.626 1025.43 443.798 1025.45 443.354C1025.49 442.898 1025.56 442.604 1025.67 442.472C1025.79 442.328 1025.97 442.256 1026.21 442.256C1026.74 442.256 1027 442.466 1027 442.886C1027 443.21 1026.97 444.056 1026.91 445.424C1026.86 446.792 1026.84 448.016 1026.84 449.096C1026.84 450.176 1026.88 451.046 1026.97 451.706C1027.11 452.858 1027.31 453.434 1027.58 453.434C1027.84 453.434 1028.05 453.248 1028.19 452.876C1028.24 452.732 1028.33 452.606 1028.46 452.498C1028.59 452.378 1028.76 452.318 1028.96 452.318H1029C1028.89 451.262 1028.84 449.618 1028.84 447.386C1028.84 445.142 1028.85 443.798 1028.87 443.354C1028.91 442.898 1028.98 442.604 1029.09 442.472C1029.21 442.328 1029.39 442.256 1029.63 442.256C1030.16 442.256 1030.42 442.466 1030.42 442.886C1030.42 443.21 1030.39 444.056 1030.33 445.424C1030.28 446.792 1030.26 448.016 1030.26 449.096C1030.26 450.176 1030.3 451.046 1030.39 451.706C1030.53 452.858 1030.73 453.434 1031 453.434C1031.26 453.434 1031.47 453.248 1031.61 452.876C1031.66 452.732 1031.75 452.606 1031.88 452.498C1032.01 452.378 1032.18 452.318 1032.38 452.318ZM1039.14 455.018C1038.82 455.018 1038.64 454.844 1038.58 454.496C1038.58 452.072 1038.43 449.912 1038.15 448.016C1038.15 447.776 1038.23 447.56 1038.4 447.368C1038.58 447.176 1038.78 447.08 1038.99 447.08C1039.22 447.08 1039.39 447.206 1039.5 447.458C1039.94 446.87 1040.53 446.576 1041.28 446.576C1042.23 446.576 1042.96 447.032 1043.47 447.944C1044.07 447.08 1044.87 446.648 1045.85 446.648C1046.85 446.648 1047.59 447.044 1048.08 447.836C1048.41 448.328 1048.63 448.976 1048.77 449.78C1048.9 450.584 1048.96 451.724 1048.96 453.2C1048.96 453.776 1048.9 454.226 1048.78 454.55C1048.66 454.862 1048.41 455.018 1048.03 455.018C1047.72 455.018 1047.56 454.82 1047.56 454.424L1047.61 452.174C1047.61 449.474 1046.91 448.124 1045.51 448.124C1045.06 448.124 1044.75 448.28 1044.57 448.592C1044.37 448.964 1044.25 449.354 1044.21 449.762C1044.16 450.482 1044.14 451.136 1044.14 451.724V454.334C1044.14 454.526 1044.04 454.688 1043.85 454.82C1043.66 454.952 1043.46 455.018 1043.26 455.018C1042.99 455.018 1042.83 454.844 1042.75 454.496L1042.81 450.77C1042.81 449.45 1042.59 448.628 1042.14 448.304C1041.93 448.148 1041.6 448.07 1041.15 448.07C1040.72 448.07 1040.4 448.232 1040.18 448.556C1039.98 448.88 1039.87 449.402 1039.87 450.122L1039.98 453.47C1039.98 454.502 1039.7 455.018 1039.14 455.018ZM1056.27 446.684C1056.42 446.684 1056.57 446.738 1056.72 446.846C1056.87 446.954 1056.95 447.074 1056.95 447.206C1056.95 447.554 1056.44 449.438 1055.42 452.858C1054.4 456.278 1053.65 458.678 1053.15 460.058C1053.05 460.382 1052.88 460.544 1052.65 460.544C1052.42 460.544 1052.24 460.46 1052.11 460.292C1051.98 460.136 1051.91 459.902 1051.91 459.59C1051.91 459.278 1052.11 458.528 1052.51 457.34C1052.91 456.164 1053.16 455.414 1053.24 455.09C1052.94 454.586 1051.93 452.066 1050.2 447.53C1050.18 447.47 1050.17 447.392 1050.17 447.296C1050.17 447.2 1050.24 447.074 1050.38 446.918C1050.53 446.762 1050.72 446.684 1050.98 446.684C1051.23 446.684 1051.43 446.81 1051.59 447.062C1051.76 447.494 1052.03 448.25 1052.42 449.33C1052.8 450.398 1053.09 451.172 1053.3 451.652C1053.51 452.132 1053.72 452.63 1053.91 453.146C1054.08 452.582 1054.37 451.49 1054.77 449.87C1055.18 448.238 1055.42 447.308 1055.48 447.08C1055.52 446.816 1055.79 446.684 1056.27 446.684ZM1067.14 452.444V452.39C1067.06 452.402 1066.87 452.408 1066.59 452.408C1065.72 452.408 1065.15 452.234 1064.86 451.886C1064.68 451.658 1064.59 451.4 1064.59 451.112C1064.59 450.812 1064.71 450.482 1064.95 450.122C1065.19 449.762 1065.49 449.474 1065.85 449.258C1066.22 449.03 1066.54 448.916 1066.82 448.916C1067.1 448.916 1067.34 448.952 1067.56 449.024C1067.56 448.952 1067.62 448.892 1067.74 448.844C1067.86 448.796 1067.99 448.772 1068.13 448.772C1068.47 448.772 1068.64 448.874 1068.64 449.078C1068.64 449.102 1068.57 449.708 1068.44 450.896C1068.79 450.704 1069.06 450.458 1069.27 450.158C1069.48 449.846 1069.59 449.522 1069.59 449.186C1069.59 448.838 1069.47 448.568 1069.21 448.376C1068.79 448.028 1068.21 447.854 1067.47 447.854C1066.74 447.854 1066.08 448.022 1065.51 448.358C1064.94 448.682 1064.51 449.108 1064.21 449.636C1063.92 450.164 1063.78 450.74 1063.78 451.364C1063.78 451.976 1064.04 452.504 1064.57 452.948C1065.1 453.392 1065.84 453.614 1066.78 453.614C1067.36 453.614 1067.91 453.488 1068.42 453.236C1068.94 452.972 1069.32 452.672 1069.56 452.336C1069.8 452 1070.01 451.832 1070.2 451.832C1070.4 451.832 1070.55 451.88 1070.65 451.976C1070.76 452.06 1070.82 452.168 1070.82 452.3C1070.82 452.432 1070.81 452.51 1070.8 452.534C1070.62 453.29 1070.19 453.884 1069.5 454.316C1068.83 454.748 1068.07 454.964 1067.22 454.964C1065.49 454.964 1064.17 454.394 1063.27 453.254C1062.82 452.654 1062.59 451.952 1062.59 451.148C1062.59 450.344 1062.84 449.582 1063.35 448.862C1063.86 448.142 1064.52 447.584 1065.31 447.188C1066.1 446.78 1066.88 446.576 1067.65 446.576C1068.42 446.576 1069.11 446.762 1069.74 447.134C1070.46 447.554 1070.82 448.244 1070.82 449.204C1070.82 450.164 1070.4 450.956 1069.56 451.58C1069.2 451.856 1068.78 452.06 1068.3 452.192C1068.25 452.588 1068.11 452.816 1067.88 452.876C1067.76 452.9 1067.67 452.912 1067.59 452.912C1067.29 452.912 1067.14 452.756 1067.14 452.444ZM1067.23 451.328C1067.32 450.872 1067.36 450.488 1067.36 450.176C1067.36 449.996 1067.25 449.906 1067.04 449.906C1066.57 449.906 1066.21 450.092 1065.97 450.464C1065.83 450.656 1065.76 450.902 1065.76 451.202C1065.93 451.298 1066.2 451.346 1066.57 451.346C1066.94 451.346 1067.16 451.34 1067.23 451.328ZM1078.09 443.228C1078.89 443.228 1079.78 443.384 1080.75 443.696C1080.97 443.864 1081.07 444.05 1081.07 444.254C1081.07 444.446 1080.97 444.62 1080.77 444.776C1080.58 444.92 1080.35 444.992 1080.1 444.992C1079.45 444.824 1078.85 444.74 1078.28 444.74C1076.99 444.74 1076 445.124 1075.33 445.892C1074.66 446.66 1074.32 447.8 1074.32 449.312C1074.32 450.824 1074.72 452.006 1075.51 452.858C1075.92 453.302 1076.41 453.524 1076.97 453.524C1077.53 453.524 1078.43 453.224 1079.67 452.624C1080.1 452.42 1080.39 452.318 1080.53 452.318C1080.85 452.318 1081 452.48 1081 452.804C1081 453.128 1080.85 453.398 1080.55 453.614C1079.52 454.154 1078.72 454.52 1078.14 454.712C1077.56 454.892 1077.07 454.982 1076.65 454.982C1075.78 454.982 1075.04 454.664 1074.43 454.028C1073.34 452.852 1072.79 451.25 1072.79 449.222C1072.79 447.182 1073.31 445.676 1074.34 444.704C1075.39 443.72 1076.63 443.228 1078.09 443.228ZM1082.71 443.354C1082.74 442.898 1082.82 442.604 1082.92 442.472C1083.04 442.328 1083.23 442.256 1083.48 442.256C1084 442.256 1084.26 442.466 1084.26 442.886C1084.26 443.21 1084.23 444.056 1084.17 445.424C1084.12 446.792 1084.09 448.016 1084.09 449.096C1084.09 450.176 1084.14 451.046 1084.22 451.706C1084.36 452.858 1084.57 453.434 1084.83 453.434C1085.1 453.434 1085.29 453.248 1085.43 452.876C1085.49 452.732 1085.58 452.606 1085.71 452.498C1085.85 452.378 1086.01 452.318 1086.22 452.318C1086.64 452.318 1086.85 452.672 1086.85 453.38C1086.85 453.764 1086.64 454.148 1086.22 454.532C1085.81 454.904 1085.4 455.09 1084.99 455.09C1084.59 455.09 1084.26 455.024 1084 454.892C1083.76 454.748 1083.57 454.538 1083.41 454.262C1083.27 453.986 1083.15 453.722 1083.05 453.47C1082.97 453.206 1082.91 452.888 1082.87 452.516C1082.8 451.916 1082.74 450.956 1082.71 449.636C1082.68 448.304 1082.67 447.038 1082.67 445.838C1082.67 444.626 1082.68 443.798 1082.71 443.354ZM1088.91 443.624C1089.13 443.624 1089.33 443.726 1089.52 443.93C1089.72 444.134 1089.81 444.35 1089.81 444.578C1089.81 444.794 1089.7 445.016 1089.49 445.244C1089.28 445.472 1089.07 445.586 1088.84 445.586C1088.61 445.586 1088.4 445.49 1088.21 445.298C1088.03 445.106 1087.94 444.86 1087.94 444.56C1087.94 443.984 1088.25 443.672 1088.88 443.624C1088.89 443.624 1088.9 443.624 1088.91 443.624ZM1089.67 453.056L1089.69 454.316C1089.69 454.544 1089.6 454.736 1089.42 454.892C1089.24 455.036 1089.04 455.108 1088.84 455.108C1088.54 455.108 1088.38 454.958 1088.37 454.658C1088.22 450.83 1088.14 448.712 1088.14 448.304C1088.14 447.896 1088.16 447.398 1088.19 446.81C1088.22 446.594 1088.35 446.486 1088.61 446.486C1089.24 446.486 1089.6 446.744 1089.69 447.26C1089.72 447.524 1089.74 447.734 1089.74 447.89L1089.67 449.024V453.056ZM1094.52 446.666C1095.16 446.666 1095.76 446.852 1096.34 447.224C1096.92 447.596 1097.2 448.058 1097.2 448.61C1097.2 449.15 1096.97 449.678 1096.5 450.194C1096.03 450.698 1095.41 451.004 1094.63 451.112C1094.29 451.16 1093.79 451.184 1093.12 451.184C1093.25 452.204 1093.51 452.876 1093.89 453.2C1094.01 453.332 1094.17 453.398 1094.38 453.398C1095.12 453.398 1095.75 453.164 1096.25 452.696C1096.75 452.216 1097.11 451.976 1097.33 451.976C1097.43 451.976 1097.57 452.066 1097.76 452.246C1097.95 452.426 1098.05 452.594 1098.05 452.75C1098.05 453.062 1097.67 453.512 1096.92 454.1C1096.58 454.376 1096.17 454.61 1095.69 454.802C1095.22 454.982 1094.79 455.072 1094.38 455.072C1093.33 455.072 1092.57 454.4 1092.07 453.056C1091.76 452.228 1091.61 451.316 1091.61 450.32C1091.61 449.324 1091.84 448.466 1092.31 447.746C1092.78 447.026 1093.51 446.666 1094.52 446.666ZM1094.61 447.908C1094.16 447.908 1093.77 448.166 1093.44 448.682C1093.32 448.862 1093.21 449.27 1093.1 449.906C1094.78 449.906 1095.62 449.492 1095.62 448.664C1095.62 448.16 1095.28 447.908 1094.61 447.908ZM1099.97 454.442L1099.77 447.134C1099.77 446.906 1099.85 446.72 1100 446.576C1100.16 446.432 1100.31 446.36 1100.47 446.36C1100.85 446.36 1101.08 446.522 1101.14 446.846C1101.18 447.17 1101.21 447.506 1101.21 447.854C1101.86 447.002 1102.67 446.576 1103.64 446.576C1105.13 446.576 1105.87 448.274 1105.87 451.67C1105.87 451.982 1105.87 452.456 1105.87 453.092C1105.87 453.716 1105.83 454.172 1105.76 454.46C1105.68 454.82 1105.42 455 1104.99 455C1104.7 455 1104.56 454.808 1104.56 454.424L1104.57 453.416C1104.57 452.024 1104.53 451.076 1104.43 450.572C1104.35 450.056 1104.26 449.648 1104.18 449.348C1103.97 448.7 1103.64 448.376 1103.19 448.376C1102.59 448.376 1102.17 448.592 1101.93 449.024C1101.66 449.492 1101.51 450.044 1101.46 450.68C1101.38 451.796 1101.33 452.978 1101.33 454.226C1101.33 454.466 1101.24 454.658 1101.06 454.802C1100.88 454.946 1100.67 455.018 1100.42 455.018C1100.12 455.018 1099.97 454.826 1099.97 454.442ZM1108.05 446.594L1108.95 446.612C1109.15 446.612 1109.27 446.606 1109.29 446.594V442.904C1109.3 442.7 1109.41 442.526 1109.6 442.382C1109.79 442.238 1109.97 442.166 1110.14 442.166C1110.31 442.166 1110.44 442.22 1110.53 442.328C1110.64 442.436 1110.69 442.604 1110.68 442.832C1110.67 443.06 1110.66 444.308 1110.66 446.576L1112.77 446.504C1113.13 446.504 1113.31 446.714 1113.31 447.134C1113.31 447.446 1113.21 447.68 1113.02 447.836C1112.84 447.992 1112.64 448.076 1112.42 448.088C1112.22 448.1 1112.02 448.106 1111.81 448.106L1110.71 448.088C1110.71 448.58 1110.76 449.552 1110.86 451.004C1110.97 452.456 1111.05 453.398 1111.11 453.83C1111.17 454.25 1111.18 454.526 1111.15 454.658C1111.11 454.778 1111.04 454.862 1110.95 454.91C1110.79 454.982 1110.58 455.018 1110.32 455.018C1110.05 455.018 1109.9 454.874 1109.85 454.586C1109.61 453.014 1109.45 450.854 1109.36 448.106C1109.26 448.118 1108.84 448.124 1108.12 448.124C1107.4 448.124 1107.04 447.914 1107.04 447.494C1107.04 446.894 1107.38 446.594 1108.05 446.594ZM1114.27 448.88C1114.27 448.172 1114.53 447.608 1115.03 447.188C1115.53 446.768 1116.12 446.558 1116.78 446.558C1117.45 446.558 1118.09 446.678 1118.7 446.918C1119.31 447.158 1119.62 447.476 1119.62 447.872C1119.62 448.076 1119.54 448.238 1119.39 448.358C1119.23 448.478 1119.09 448.538 1118.97 448.538C1118.86 448.538 1118.77 448.538 1118.7 448.538C1118.64 448.526 1118.4 448.412 1117.98 448.196C1117.57 447.98 1117.2 447.872 1116.85 447.872C1116.5 447.872 1116.2 447.962 1115.95 448.142C1115.71 448.31 1115.59 448.562 1115.59 448.898C1115.59 449.234 1115.73 449.498 1116 449.69C1116.29 449.882 1116.79 450.05 1117.5 450.194C1118.2 450.326 1118.74 450.518 1119.12 450.77C1119.5 451.022 1119.69 451.49 1119.69 452.174C1119.69 453.17 1119.43 453.878 1118.9 454.298C1118.38 454.706 1117.75 454.91 1117.01 454.91C1116.27 454.91 1115.63 454.808 1115.1 454.604C1114.59 454.4 1114.33 454.094 1114.33 453.686C1114.33 453.218 1114.56 452.984 1115.03 452.984C1115.15 452.984 1115.41 453.068 1115.82 453.236C1116.23 453.404 1116.63 453.488 1117.03 453.488C1117.44 453.488 1117.74 453.362 1117.95 453.11C1118.16 452.846 1118.27 452.546 1118.27 452.21C1118.27 451.874 1118.13 451.634 1117.86 451.49C1117.58 451.334 1117.16 451.208 1116.6 451.112C1116.03 451.016 1115.62 450.914 1115.35 450.806C1114.63 450.518 1114.27 449.876 1114.27 448.88Z" fill="#1B1B1B"/>
<path d="M1215.76 435.237C1215.39 434.921 1214.95 434.714 1214.48 434.638C1214 434.562 1213.52 434.62 1213.08 434.805L1189.93 444.452C1189.43 444.662 1189.01 445.023 1188.72 445.486C1188.43 445.949 1188.28 446.493 1188.29 447.046C1188.31 447.598 1188.49 448.133 1188.8 448.579C1189.12 449.025 1189.56 449.361 1190.06 449.543L1194.75 451.224L1197.35 460.133C1197.39 460.252 1197.44 460.365 1197.51 460.469C1197.52 460.485 1197.53 460.497 1197.54 460.513C1197.62 460.623 1197.71 460.72 1197.82 460.801C1197.85 460.824 1197.87 460.846 1197.91 460.867C1198.03 460.951 1198.16 461.012 1198.31 461.048L1198.32 461.05L1198.33 461.053C1198.42 461.071 1198.5 461.081 1198.59 461.081C1198.6 461.081 1198.61 461.077 1198.62 461.076C1198.75 461.074 1198.88 461.051 1199.01 461.007C1199.03 460.996 1199.06 460.979 1199.09 460.967C1199.18 460.927 1199.27 460.876 1199.35 460.814C1199.42 460.757 1199.48 460.7 1199.55 460.643L1203.04 456.665L1208.24 460.828C1208.7 461.196 1209.27 461.397 1209.85 461.397C1210.46 461.396 1211.05 461.18 1211.52 460.783C1211.99 460.387 1212.32 459.835 1212.44 459.22L1216.66 437.865C1216.75 437.384 1216.72 436.886 1216.56 436.423C1216.4 435.96 1216.13 435.55 1215.76 435.237V435.237ZM1199.1 451.649C1198.93 451.833 1198.8 452.067 1198.75 452.323L1198.35 454.328L1197.34 450.871L1202.59 448.048L1199.1 451.649ZM1209.83 458.72L1203.68 453.801C1203.42 453.596 1203.1 453.498 1202.77 453.527C1202.45 453.557 1202.15 453.711 1201.93 453.96L1200.81 455.233L1201.2 453.251L1210.35 443.807C1210.57 443.582 1210.7 443.284 1210.73 442.966C1210.75 442.649 1210.66 442.333 1210.48 442.076C1210.3 441.819 1210.03 441.638 1209.73 441.566C1209.43 441.494 1209.12 441.535 1208.84 441.682L1195.71 448.739L1190.9 446.922L1214.13 437.332L1209.83 458.72Z" fill="#1B1B1B"/>
<path d="M149.501 432.75C149.938 432.75 150.365 432.618 150.728 432.371C151.091 432.124 151.374 431.772 151.542 431.361C151.709 430.95 151.752 430.498 151.667 430.061C151.582 429.625 151.372 429.224 151.063 428.909C150.754 428.594 150.361 428.38 149.932 428.293C149.504 428.206 149.06 428.251 148.656 428.421C148.253 428.592 147.908 428.88 147.665 429.25C147.422 429.62 147.293 430.055 147.293 430.5C147.293 431.097 147.526 431.669 147.94 432.091C148.354 432.513 148.916 432.75 149.501 432.75ZM160.543 432.75C160.98 432.75 161.407 432.618 161.77 432.371C162.133 432.124 162.416 431.772 162.583 431.361C162.75 430.95 162.794 430.498 162.709 430.061C162.624 429.625 162.413 429.224 162.104 428.909C161.796 428.594 161.402 428.38 160.974 428.293C160.545 428.206 160.101 428.251 159.698 428.421C159.294 428.592 158.949 428.88 158.707 429.25C158.464 429.62 158.335 430.055 158.335 430.5C158.335 431.097 158.567 431.669 158.981 432.091C159.396 432.513 159.957 432.75 160.543 432.75ZM160.543 423.75C160.98 423.75 161.407 423.618 161.77 423.371C162.133 423.124 162.416 422.772 162.583 422.361C162.75 421.95 162.794 421.498 162.709 421.061C162.624 420.625 162.413 420.224 162.104 419.909C161.796 419.594 161.402 419.38 160.974 419.293C160.545 419.206 160.101 419.251 159.698 419.421C159.294 419.592 158.949 419.88 158.707 420.25C158.464 420.62 158.335 421.055 158.335 421.5C158.335 422.097 158.567 422.669 158.981 423.091C159.396 423.513 159.957 423.75 160.543 423.75ZM149.501 423.75C149.938 423.75 150.365 423.618 150.728 423.371C151.091 423.124 151.374 422.772 151.542 422.361C151.709 421.95 151.752 421.498 151.667 421.061C151.582 420.625 151.372 420.224 151.063 419.909C150.754 419.594 150.361 419.38 149.932 419.293C149.504 419.206 149.06 419.251 148.656 419.421C148.253 419.592 147.908 419.88 147.665 420.25C147.422 420.62 147.293 421.055 147.293 421.5C147.293 422.097 147.526 422.669 147.94 423.091C148.354 423.513 148.916 423.75 149.501 423.75ZM164.96 396.75H162.751V394.5C162.751 393.903 162.519 393.331 162.104 392.909C161.69 392.487 161.129 392.25 160.543 392.25C159.957 392.25 159.396 392.487 158.981 392.909C158.567 393.331 158.335 393.903 158.335 394.5V396.75H140.668V394.5C140.668 393.903 140.435 393.331 140.021 392.909C139.607 392.487 139.045 392.25 138.46 392.25C137.874 392.25 137.312 392.487 136.898 392.909C136.484 393.331 136.251 393.903 136.251 394.5V396.75H134.043C132.286 396.75 130.601 397.461 129.358 398.727C128.116 399.993 127.418 401.71 127.418 403.5V435C127.418 436.79 128.116 438.507 129.358 439.773C130.601 441.039 132.286 441.75 134.043 441.75H164.96C166.717 441.75 168.402 441.039 169.644 439.773C170.887 438.507 171.585 436.79 171.585 435V403.5C171.585 401.71 170.887 399.993 169.644 398.727C168.402 397.461 166.717 396.75 164.96 396.75ZM167.168 435C167.168 435.597 166.935 436.169 166.521 436.591C166.107 437.013 165.545 437.25 164.96 437.25H134.043C133.457 437.25 132.896 437.013 132.481 436.591C132.067 436.169 131.835 435.597 131.835 435V414.75H167.168V435ZM167.168 410.25H131.835V403.5C131.835 402.903 132.067 402.331 132.481 401.909C132.896 401.487 133.457 401.25 134.043 401.25H136.251V403.5C136.251 404.097 136.484 404.669 136.898 405.091C137.312 405.513 137.874 405.75 138.46 405.75C139.045 405.75 139.607 405.513 140.021 405.091C140.435 404.669 140.668 404.097 140.668 403.5V401.25H158.335V403.5C158.335 404.097 158.567 404.669 158.981 405.091C159.396 405.513 159.957 405.75 160.543 405.75C161.129 405.75 161.69 405.513 162.104 405.091C162.519 404.669 162.751 404.097 162.751 403.5V401.25H164.96C165.545 401.25 166.107 401.487 166.521 401.909C166.935 402.331 167.168 402.903 167.168 403.5V410.25ZM138.46 423.75C138.896 423.75 139.323 423.618 139.687 423.371C140.05 423.124 140.333 422.772 140.5 422.361C140.667 421.95 140.711 421.498 140.626 421.061C140.54 420.625 140.33 420.224 140.021 419.909C139.712 419.594 139.319 419.38 138.89 419.293C138.462 419.206 138.018 419.251 137.615 419.421C137.211 419.592 136.866 419.88 136.623 420.25C136.381 420.62 136.251 421.055 136.251 421.5C136.251 422.097 136.484 422.669 136.898 423.091C137.312 423.513 137.874 423.75 138.46 423.75ZM138.46 432.75C138.896 432.75 139.323 432.618 139.687 432.371C140.05 432.124 140.333 431.772 140.5 431.361C140.667 430.95 140.711 430.498 140.626 430.061C140.54 429.625 140.33 429.224 140.021 428.909C139.712 428.594 139.319 428.38 138.89 428.293C138.462 428.206 138.018 428.251 137.615 428.421C137.211 428.592 136.866 428.88 136.623 429.25C136.381 429.62 136.251 430.055 136.251 430.5C136.251 431.097 136.484 431.669 136.898 432.091C137.312 432.513 137.874 432.75 138.46 432.75Z" fill="white"/>
<path d="M694.374 454.125C693.64 454.125 692.923 454.332 692.313 454.722C691.704 455.111 691.228 455.664 690.948 456.311C690.667 456.958 690.594 457.67 690.737 458.357C690.88 459.044 691.233 459.675 691.752 460.171C692.27 460.666 692.931 461.003 693.65 461.14C694.37 461.277 695.115 461.206 695.793 460.938C696.47 460.67 697.05 460.216 697.457 459.634C697.865 459.052 698.082 458.367 698.082 457.666C698.082 456.727 697.691 455.826 696.996 455.162C696.3 454.498 695.357 454.125 694.374 454.125ZM668.415 450.583C667.432 450.583 666.489 450.956 665.793 451.62C665.098 452.285 664.707 453.185 664.707 454.125V461.208C664.707 462.147 665.098 463.048 665.793 463.712C666.489 464.377 667.432 464.75 668.415 464.75C669.399 464.75 670.342 464.377 671.038 463.712C671.733 463.048 672.124 462.147 672.124 461.208V454.125C672.124 453.185 671.733 452.285 671.038 451.62C670.342 450.956 669.399 450.583 668.415 450.583ZM742.582 450.583C741.599 450.583 740.655 450.956 739.96 451.62C739.264 452.285 738.874 453.185 738.874 454.125V461.208C738.874 462.147 739.264 463.048 739.96 463.712C740.655 464.377 741.599 464.75 742.582 464.75C743.566 464.75 744.509 464.377 745.204 463.712C745.9 463.048 746.29 462.147 746.29 461.208V454.125C746.29 453.185 745.9 452.285 745.204 451.62C744.509 450.956 743.566 450.583 742.582 450.583ZM724.04 425.791H709.207V421.258C710.328 420.64 711.26 419.752 711.911 418.684C712.561 417.615 712.908 416.402 712.915 415.166C712.915 413.288 712.134 411.486 710.743 410.158C709.352 408.829 707.466 408.083 705.499 408.083C703.532 408.083 701.645 408.829 700.254 410.158C698.863 411.486 698.082 413.288 698.082 415.166C698.09 416.402 698.436 417.615 699.087 418.684C699.737 419.752 700.669 420.64 701.79 421.258V425.791H686.957C684.006 425.791 681.177 426.911 679.09 428.903C677.004 430.896 675.832 433.598 675.832 436.416V468.291C675.832 471.109 677.004 473.812 679.09 475.804C681.177 477.797 684.006 478.916 686.957 478.916H724.04C726.991 478.916 729.821 477.797 731.907 475.804C733.993 473.812 735.165 471.109 735.165 468.291V436.416C735.165 433.598 733.993 430.896 731.907 428.903C729.821 426.911 726.991 425.791 724.04 425.791ZM711.877 432.875L710.023 439.958H700.975L699.12 432.875H711.877ZM727.749 468.291C727.749 469.231 727.358 470.131 726.663 470.796C725.967 471.46 725.024 471.833 724.04 471.833H686.957C685.974 471.833 685.03 471.46 684.335 470.796C683.639 470.131 683.249 469.231 683.249 468.291V436.416C683.249 435.477 683.639 434.576 684.335 433.912C685.03 433.248 685.974 432.875 686.957 432.875H691.481L694.374 444.35C694.577 445.135 695.055 445.831 695.73 446.321C696.405 446.811 697.235 447.065 698.082 447.041H712.915C713.762 447.065 714.592 446.811 715.267 446.321C715.942 445.831 716.421 445.135 716.624 444.35L719.516 432.875H724.04C725.024 432.875 725.967 433.248 726.663 433.912C727.358 434.576 727.749 435.477 727.749 436.416V468.291ZM716.624 454.125C715.89 454.125 715.173 454.332 714.563 454.722C713.954 455.111 713.478 455.664 713.198 456.311C712.917 456.958 712.844 457.67 712.987 458.357C713.13 459.044 713.483 459.675 714.002 460.171C714.52 460.666 715.181 461.003 715.9 461.14C716.62 461.277 717.365 461.206 718.043 460.938C718.72 460.67 719.3 460.216 719.707 459.634C720.115 459.052 720.332 458.367 720.332 457.666C720.332 456.727 719.941 455.826 719.246 455.162C718.55 454.498 717.607 454.125 716.624 454.125Z" fill="#FFFEFE"/>
<path d="M514.662 448.375C517.316 449.539 519.591 451.296 521.243 453.481C522.191 454.716 522.191 456.307 521.243 457.542C519.591 459.704 517.316 461.461 514.662 462.625M531.21 462.625H542.043M520.376 479.25H536.626C550.168 479.25 555.585 474.5 555.585 462.625V448.375C555.585 436.5 550.168 431.75 536.626 431.75H520.376C506.835 431.75 501.418 436.5 501.418 448.375V462.625C501.418 474.5 506.835 479.25 520.376 479.25Z" stroke="white" stroke-width="1.5" stroke-linecap="round" stroke-linejoin="round"/>
<path d="M209.125 625.375L197.963 621.813C197.963 621.813 195.583 623.5 190.521 623.5C181.328 623.5 173.875 616.365 173.875 607.562C173.875 598.76 181.328 591.625 190.521 591.625C199.714 591.625 207.167 598.76 207.167 607.562C207.167 612.25 205.404 614.688 205.404 614.688L209.125 625.375Z" fill="#FAF9F9" fill-opacity="0.15"/>
<path d="M183.667 603.812H197.375M183.667 611.312H193.458M197.963 621.813L209.125 625.375L205.404 614.688C205.404 614.688 207.167 612.25 207.167 607.562C207.167 598.76 199.714 591.625 190.521 591.625C181.328 591.625 173.875 598.76 173.875 607.562C173.875 616.365 181.328 623.5 190.521 623.5C195.583 623.5 197.963 621.813 197.963 621.813Z" stroke="#FFF4F4" stroke-width="2" stroke-linecap="round" stroke-linejoin="round"/>
<path d="M425 456.597C430.511 456.597 436.022 456.597 441.533 456.597C449.322 456.597 457.233 454.343 465 458.597" stroke="white" stroke-width="3" stroke-linecap="round"/>
<path d="M454 449C455.555 449.691 475.884 456 471.778 459C467.522 462.11 464.036 466.321 459 468" stroke="white" stroke-width="3" stroke-linecap="round"/>
<path d="M590 456.597C595.511 456.597 601.022 456.597 606.533 456.597C614.322 456.597 622.233 454.343 630 458.597" stroke="white" stroke-width="3" stroke-linecap="round"/>
<path d="M619 449C620.555 449.691 640.884 456 636.778 459C632.522 462.11 629.036 466.321 624 468" stroke="white" stroke-width="3" stroke-linecap="round"/>
<path d="M765 450.597C770.511 450.597 776.022 450.597 781.533 450.597C789.322 450.597 797.233 448.343 805 452.597" stroke="white" stroke-width="3" stroke-linecap="round"/>
<path d="M794 443C795.555 443.691 815.884 450 811.778 453C807.522 456.11 804.036 460.321 799 462" stroke="white" stroke-width="3" stroke-linecap="round"/>
<path d="M680.792 385.318L688.082 385.21C688.43 385.318 688.604 385.492 688.604 385.732C688.604 386.332 688.358 386.632 687.866 386.632C686.966 386.632 686.012 386.656 685.004 386.704C684.944 387.736 684.914 388.516 684.914 389.044C684.914 389.56 684.914 389.89 684.914 390.034L684.986 396.352C684.986 396.724 684.89 396.94 684.698 397C684.554 397.048 684.374 397.072 684.158 397.072C683.81 397.072 683.618 396.874 683.582 396.478C683.51 395.554 683.474 393.832 683.474 391.312C683.474 388.78 683.51 387.256 683.582 386.74C683.33 386.752 682.958 386.758 682.466 386.758C681.974 386.758 681.362 386.752 680.63 386.74C680.438 386.74 680.288 386.68 680.18 386.56C680.072 386.44 680.018 386.296 680.018 386.128C680.018 385.948 680.09 385.774 680.234 385.606C680.39 385.438 680.576 385.342 680.792 385.318ZM691.606 394.372L691.624 396.226C691.624 396.442 691.522 396.64 691.318 396.82C691.126 397 690.934 397.09 690.742 397.09C690.466 397.09 690.292 396.874 690.22 396.442C690.208 396.346 690.16 395.47 690.076 393.814C689.992 392.146 689.83 390.838 689.59 389.89C689.482 389.434 689.428 389.164 689.428 389.08C689.428 388.684 689.668 388.486 690.148 388.486C690.352 388.486 690.514 388.564 690.634 388.72C690.754 388.876 690.826 389.038 690.85 389.206C690.886 389.362 690.916 389.578 690.94 389.854C690.964 390.13 690.982 390.304 690.994 390.376C691.246 389.776 691.624 389.326 692.128 389.026C692.632 388.726 693.184 388.576 693.784 388.576C694.768 388.576 695.26 388.828 695.26 389.332C695.26 389.584 695.17 389.788 694.99 389.944C694.822 390.088 694.624 390.16 694.396 390.16C693.376 390.16 692.656 390.484 692.236 391.132C691.816 391.78 691.606 392.86 691.606 394.372ZM701.412 388.594C701.94 388.594 702.204 389.044 702.204 389.944C702.204 390.04 702.204 390.142 702.204 390.25L702.168 391.51C702.156 391.906 702.15 392.296 702.15 392.68L702.42 396.748C702.42 397.048 702.114 397.198 701.502 397.198C701.466 397.198 701.376 397.198 701.232 397.198C701.1 397.198 701.004 397.144 700.944 397.036C700.896 396.928 700.89 396.796 700.926 396.64C700.974 396.484 700.962 396.31 700.89 396.118C700.338 396.706 699.606 397 698.694 397C697.002 397 696.156 395.692 696.156 393.076C696.156 391.624 696.426 390.526 696.966 389.782C697.518 389.038 698.304 388.666 699.324 388.666C699.804 388.666 700.284 388.75 700.764 388.918C700.92 388.702 701.136 388.594 701.412 388.594ZM699.54 390.232C698.856 390.232 698.346 390.43 698.01 390.826C697.674 391.222 697.506 391.948 697.506 393.004C697.506 394.78 697.986 395.668 698.946 395.668C699.198 395.668 699.474 395.554 699.774 395.326C700.086 395.098 700.302 394.84 700.422 394.552C700.65 393.904 700.764 393.196 700.764 392.428C700.764 391.66 700.668 391.102 700.476 390.754C700.296 390.406 699.984 390.232 699.54 390.232ZM704.807 385.624C705.023 385.624 705.227 385.726 705.419 385.93C705.611 386.134 705.707 386.35 705.707 386.578C705.707 386.794 705.599 387.016 705.383 387.244C705.179 387.472 704.963 387.586 704.735 387.586C704.507 387.586 704.297 387.49 704.105 387.298C703.925 387.106 703.835 386.86 703.835 386.56C703.835 385.984 704.147 385.672 704.771 385.624C704.783 385.624 704.795 385.624 704.807 385.624ZM705.563 395.056L705.581 396.316C705.581 396.544 705.491 396.736 705.311 396.892C705.131 397.036 704.939 397.108 704.735 397.108C704.435 397.108 704.279 396.958 704.267 396.658C704.111 392.83 704.033 390.712 704.033 390.304C704.033 389.896 704.051 389.398 704.087 388.81C704.111 388.594 704.249 388.486 704.501 388.486C705.137 388.486 705.497 388.744 705.581 389.26C705.617 389.524 705.635 389.734 705.635 389.89L705.563 391.024V395.056ZM708.508 396.442L708.31 389.134C708.31 388.906 708.388 388.72 708.544 388.576C708.7 388.432 708.856 388.36 709.012 388.36C709.396 388.36 709.618 388.522 709.678 388.846C709.726 389.17 709.75 389.506 709.75 389.854C710.398 389.002 711.208 388.576 712.18 388.576C713.668 388.576 714.412 390.274 714.412 393.67C714.412 393.982 714.412 394.456 714.412 395.092C714.412 395.716 714.376 396.172 714.304 396.46C714.22 396.82 713.962 397 713.53 397C713.242 397 713.098 396.808 713.098 396.424L713.116 395.416C713.116 394.024 713.068 393.076 712.972 392.572C712.888 392.056 712.804 391.648 712.72 391.348C712.516 390.7 712.186 390.376 711.73 390.376C711.13 390.376 710.71 390.592 710.47 391.024C710.206 391.492 710.05 392.044 710.002 392.68C709.918 393.796 709.876 394.978 709.876 396.226C709.876 396.466 709.786 396.658 709.606 396.802C709.426 396.946 709.21 397.018 708.958 397.018C708.658 397.018 708.508 396.826 708.508 396.442ZM718.735 388.666C719.371 388.666 719.977 388.852 720.553 389.224C721.129 389.596 721.417 390.058 721.417 390.61C721.417 391.15 721.183 391.678 720.715 392.194C720.247 392.698 719.623 393.004 718.843 393.112C718.507 393.16 718.003 393.184 717.331 393.184C717.463 394.204 717.721 394.876 718.105 395.2C718.225 395.332 718.387 395.398 718.591 395.398C719.335 395.398 719.959 395.164 720.463 394.696C720.967 394.216 721.327 393.976 721.543 393.976C721.639 393.976 721.783 394.066 721.975 394.246C722.167 394.426 722.263 394.594 722.263 394.75C722.263 395.062 721.885 395.512 721.129 396.1C720.793 396.376 720.385 396.61 719.905 396.802C719.437 396.982 718.999 397.072 718.591 397.072C717.547 397.072 716.779 396.4 716.287 395.056C715.975 394.228 715.819 393.316 715.819 392.32C715.819 391.324 716.053 390.466 716.521 389.746C716.989 389.026 717.727 388.666 718.735 388.666ZM718.825 389.908C718.369 389.908 717.979 390.166 717.655 390.682C717.535 390.862 717.421 391.27 717.313 391.906C718.993 391.906 719.833 391.492 719.833 390.664C719.833 390.16 719.497 389.908 718.825 389.908ZM727.796 388.576L727.778 385.102C727.778 384.454 727.982 384.13 728.39 384.13C728.81 384.13 729.044 384.31 729.092 384.67C729.116 384.826 729.146 385.768 729.182 387.496C729.218 389.224 729.272 390.844 729.344 392.356C729.428 393.868 729.47 395.278 729.47 396.586C729.47 396.946 729.2 397.126 728.66 397.126C728.3 397.126 728.12 396.874 728.12 396.37C727.604 396.778 726.992 396.982 726.284 396.982C725.384 396.982 724.652 396.646 724.088 395.974C723.536 395.302 723.26 394.474 723.26 393.49C723.26 392.506 723.458 391.588 723.854 390.736C724.262 389.872 724.892 389.254 725.744 388.882C726.272 388.654 726.782 388.54 727.274 388.54C727.454 388.54 727.628 388.552 727.796 388.576ZM727.886 391.042C727.802 390.778 727.7 390.58 727.58 390.448C727.46 390.304 727.328 390.22 727.184 390.196C727.052 390.16 726.89 390.142 726.698 390.142C726.506 390.142 726.272 390.214 725.996 390.358C725.72 390.502 725.486 390.736 725.294 391.06C724.91 391.708 724.718 392.392 724.718 393.112C724.718 393.82 724.856 394.402 725.132 394.858C725.42 395.302 725.822 395.524 726.338 395.524C726.866 395.524 727.28 395.266 727.58 394.75C727.88 394.234 728.03 393.574 728.03 392.77C728.03 391.87 727.982 391.294 727.886 391.042Z" fill="white"/>
<path d="M1167.5 454.75C1168.61 454.75 1169.67 454.364 1170.45 453.676C1171.23 452.989 1171.67 452.056 1171.67 451.084V445.584C1171.67 444.611 1171.23 443.679 1170.45 442.991C1169.67 442.303 1168.61 441.917 1167.5 441.917C1166.4 441.917 1165.34 442.303 1164.56 442.991C1163.77 443.679 1163.33 444.611 1163.33 445.584V451.084C1163.33 452.056 1163.77 452.989 1164.56 453.676C1165.34 454.364 1166.4 454.75 1167.5 454.75ZM1165.42 445.584C1165.42 445.097 1165.64 444.631 1166.03 444.287C1166.42 443.943 1166.95 443.75 1167.5 443.75C1168.05 443.75 1168.58 443.943 1168.97 444.287C1169.37 444.631 1169.58 445.097 1169.58 445.584V451.084C1169.58 451.57 1169.37 452.036 1168.97 452.38C1168.58 452.724 1168.05 452.917 1167.5 452.917C1166.95 452.917 1166.42 452.724 1166.03 452.38C1165.64 452.036 1165.42 451.57 1165.42 451.084V445.584ZM1175.83 451.084C1175.83 450.841 1175.72 450.607 1175.53 450.435C1175.33 450.264 1175.07 450.167 1174.79 450.167C1174.52 450.167 1174.25 450.264 1174.06 450.435C1173.86 450.607 1173.75 450.841 1173.75 451.084C1173.75 452.542 1173.09 453.941 1171.92 454.973C1170.75 456.004 1169.16 456.584 1167.5 456.584C1165.84 456.584 1164.25 456.004 1163.08 454.973C1161.91 453.941 1161.25 452.542 1161.25 451.084C1161.25 450.841 1161.14 450.607 1160.95 450.435C1160.75 450.264 1160.49 450.167 1160.21 450.167C1159.93 450.167 1159.67 450.264 1159.47 450.435C1159.28 450.607 1159.17 450.841 1159.17 451.084C1159.17 452.869 1159.91 454.592 1161.25 455.93C1162.6 457.268 1164.45 458.13 1166.46 458.353V460.25H1164.38C1164.1 460.25 1163.84 460.347 1163.64 460.519C1163.44 460.691 1163.33 460.924 1163.33 461.167C1163.33 461.41 1163.44 461.643 1163.64 461.815C1163.84 461.987 1164.1 462.084 1164.38 462.084H1170.63C1170.9 462.084 1171.17 461.987 1171.36 461.815C1171.56 461.643 1171.67 461.41 1171.67 461.167C1171.67 460.924 1171.56 460.691 1171.36 460.519C1171.17 460.347 1170.9 460.25 1170.63 460.25H1168.54V458.353C1170.56 458.13 1172.41 457.268 1173.75 455.93C1175.09 454.592 1175.83 452.869 1175.83 451.084V451.084Z" fill="#1B1B1B"/>
<path d="M469.048 395.228C469.852 395.228 470.74 395.384 471.712 395.696C471.928 395.864 472.036 396.05 472.036 396.254C472.036 396.446 471.934 396.62 471.73 396.776C471.538 396.92 471.316 396.992 471.064 396.992C470.416 396.824 469.81 396.74 469.246 396.74C467.95 396.74 466.966 397.124 466.294 397.892C465.622 398.66 465.286 399.8 465.286 401.312C465.286 402.824 465.682 404.006 466.474 404.858C466.882 405.302 467.368 405.524 467.932 405.524C468.496 405.524 469.396 405.224 470.632 404.624C471.064 404.42 471.352 404.318 471.496 404.318C471.808 404.318 471.964 404.48 471.964 404.804C471.964 405.128 471.814 405.398 471.514 405.614C470.482 406.154 469.678 406.52 469.102 406.712C468.526 406.892 468.028 406.982 467.608 406.982C466.744 406.982 466.006 406.664 465.394 406.028C464.302 404.852 463.756 403.25 463.756 401.222C463.756 399.182 464.272 397.676 465.304 396.704C466.348 395.72 467.596 395.228 469.048 395.228ZM476.911 398.612C477.775 398.612 478.483 399.026 479.035 399.854C479.599 400.682 479.881 401.678 479.881 402.842C479.881 403.994 479.593 404.978 479.017 405.794C478.453 406.61 477.697 407.018 476.749 407.018C475.813 407.018 475.057 406.604 474.481 405.776C473.905 404.936 473.617 404.006 473.617 402.986C473.617 401.678 473.881 400.634 474.409 399.854C474.973 399.026 475.807 398.612 476.911 398.612ZM476.695 400.088C476.191 400.088 475.777 400.352 475.453 400.88C475.129 401.408 474.967 401.966 474.967 402.554C474.967 403.466 475.147 404.162 475.507 404.642C475.867 405.122 476.275 405.362 476.731 405.362C477.547 405.362 478.069 405.008 478.297 404.3C478.393 403.964 478.441 403.544 478.441 403.04C478.441 401.072 477.859 400.088 476.695 400.088ZM485.467 398.576L485.449 395.102C485.449 394.454 485.653 394.13 486.061 394.13C486.481 394.13 486.715 394.31 486.763 394.67C486.787 394.826 486.817 395.768 486.853 397.496C486.889 399.224 486.943 400.844 487.015 402.356C487.099 403.868 487.141 405.278 487.141 406.586C487.141 406.946 486.871 407.126 486.331 407.126C485.971 407.126 485.791 406.874 485.791 406.37C485.275 406.778 484.663 406.982 483.955 406.982C483.055 406.982 482.323 406.646 481.759 405.974C481.207 405.302 480.931 404.474 480.931 403.49C480.931 402.506 481.129 401.588 481.525 400.736C481.933 399.872 482.563 399.254 483.415 398.882C483.943 398.654 484.453 398.54 484.945 398.54C485.125 398.54 485.299 398.552 485.467 398.576ZM485.557 401.042C485.473 400.778 485.371 400.58 485.251 400.448C485.131 400.304 484.999 400.22 484.855 400.196C484.723 400.16 484.561 400.142 484.369 400.142C484.177 400.142 483.943 400.214 483.667 400.358C483.391 400.502 483.157 400.736 482.965 401.06C482.581 401.708 482.389 402.392 482.389 403.112C482.389 403.82 482.527 404.402 482.803 404.858C483.091 405.302 483.493 405.524 484.009 405.524C484.537 405.524 484.951 405.266 485.251 404.75C485.551 404.234 485.701 403.574 485.701 402.77C485.701 401.87 485.653 401.294 485.557 401.042ZM489.547 395.624C489.763 395.624 489.967 395.726 490.159 395.93C490.351 396.134 490.447 396.35 490.447 396.578C490.447 396.794 490.339 397.016 490.123 397.244C489.919 397.472 489.703 397.586 489.475 397.586C489.247 397.586 489.037 397.49 488.845 397.298C488.665 397.106 488.575 396.86 488.575 396.56C488.575 395.984 488.887 395.672 489.511 395.624C489.523 395.624 489.535 395.624 489.547 395.624ZM490.303 405.056L490.321 406.316C490.321 406.544 490.231 406.736 490.051 406.892C489.871 407.036 489.679 407.108 489.475 407.108C489.175 407.108 489.019 406.958 489.007 406.658C488.851 402.83 488.773 400.712 488.773 400.304C488.773 399.896 488.791 399.398 488.827 398.81C488.851 398.594 488.989 398.486 489.241 398.486C489.877 398.486 490.237 398.744 490.321 399.26C490.357 399.524 490.375 399.734 490.375 399.89L490.303 401.024V405.056ZM493.248 406.442L493.05 399.134C493.05 398.906 493.128 398.72 493.284 398.576C493.44 398.432 493.596 398.36 493.752 398.36C494.136 398.36 494.358 398.522 494.418 398.846C494.466 399.17 494.49 399.506 494.49 399.854C495.138 399.002 495.948 398.576 496.92 398.576C498.408 398.576 499.152 400.274 499.152 403.67C499.152 403.982 499.152 404.456 499.152 405.092C499.152 405.716 499.116 406.172 499.044 406.46C498.96 406.82 498.702 407 498.27 407C497.982 407 497.838 406.808 497.838 406.424L497.856 405.416C497.856 404.024 497.808 403.076 497.712 402.572C497.628 402.056 497.544 401.648 497.46 401.348C497.256 400.7 496.926 400.376 496.47 400.376C495.87 400.376 495.45 400.592 495.21 401.024C494.946 401.492 494.79 402.044 494.742 402.68C494.658 403.796 494.616 404.978 494.616 406.226C494.616 406.466 494.526 406.658 494.346 406.802C494.166 406.946 493.95 407.018 493.698 407.018C493.398 407.018 493.248 406.826 493.248 406.442ZM506.049 406.262C505.617 406.766 505.071 407.018 504.411 407.018C503.751 407.018 503.181 406.814 502.701 406.406C501.693 405.626 501.189 404.432 501.189 402.824C501.189 401.564 501.537 400.556 502.233 399.8C502.929 399.032 503.787 398.648 504.807 398.648C505.827 398.648 506.523 398.996 506.895 399.692C507.219 400.304 507.381 401.228 507.381 402.464L507.345 403.94C507.345 404.636 507.375 405.602 507.435 406.838C507.507 408.062 507.543 408.986 507.543 409.61C507.543 410.642 507.285 411.398 506.769 411.878C506.265 412.37 505.491 412.616 504.447 412.616C503.823 412.616 503.187 412.484 502.539 412.22C501.891 411.956 501.567 411.65 501.567 411.302C501.567 411.05 501.633 410.858 501.765 410.726C501.909 410.594 502.071 410.528 502.251 410.528C502.431 410.528 502.833 410.66 503.457 410.924C504.093 411.188 504.549 411.32 504.825 411.32C505.689 411.32 506.121 410.612 506.121 409.196C506.121 407.78 506.097 406.802 506.049 406.262ZM506.031 402.464C506.031 401.588 505.899 400.976 505.635 400.628C505.383 400.268 504.981 400.088 504.429 400.088C503.877 400.088 503.433 400.34 503.097 400.844C502.761 401.348 502.593 401.99 502.593 402.77C502.593 403.538 502.749 404.15 503.061 404.606C503.385 405.062 503.877 405.29 504.537 405.29C505.197 405.29 505.623 405.008 505.815 404.444C505.959 403.988 506.031 403.328 506.031 402.464ZM518.429 398.594C518.957 398.594 519.221 399.044 519.221 399.944C519.221 400.04 519.221 400.142 519.221 400.25L519.185 401.51C519.173 401.906 519.167 402.296 519.167 402.68L519.437 406.748C519.437 407.048 519.131 407.198 518.519 407.198C518.483 407.198 518.393 407.198 518.249 407.198C518.117 407.198 518.021 407.144 517.961 407.036C517.913 406.928 517.907 406.796 517.943 406.64C517.991 406.484 517.979 406.31 517.907 406.118C517.355 406.706 516.623 407 515.711 407C514.019 407 513.173 405.692 513.173 403.076C513.173 401.624 513.443 400.526 513.983 399.782C514.535 399.038 515.321 398.666 516.341 398.666C516.821 398.666 517.301 398.75 517.781 398.918C517.937 398.702 518.153 398.594 518.429 398.594ZM516.557 400.232C515.873 400.232 515.363 400.43 515.027 400.826C514.691 401.222 514.523 401.948 514.523 403.004C514.523 404.78 515.003 405.668 515.963 405.668C516.215 405.668 516.491 405.554 516.791 405.326C517.103 405.098 517.319 404.84 517.439 404.552C517.667 403.904 517.781 403.196 517.781 402.428C517.781 401.66 517.685 401.102 517.493 400.754C517.313 400.406 517.001 400.232 516.557 400.232ZM521.32 406.442L521.122 399.134C521.122 398.906 521.2 398.72 521.356 398.576C521.512 398.432 521.668 398.36 521.824 398.36C522.208 398.36 522.43 398.522 522.49 398.846C522.538 399.17 522.562 399.506 522.562 399.854C523.21 399.002 524.02 398.576 524.992 398.576C526.48 398.576 527.224 400.274 527.224 403.67C527.224 403.982 527.224 404.456 527.224 405.092C527.224 405.716 527.188 406.172 527.116 406.46C527.032 406.82 526.774 407 526.342 407C526.054 407 525.91 406.808 525.91 406.424L525.928 405.416C525.928 404.024 525.88 403.076 525.784 402.572C525.7 402.056 525.616 401.648 525.532 401.348C525.328 400.7 524.998 400.376 524.542 400.376C523.942 400.376 523.522 400.592 523.282 401.024C523.018 401.492 522.862 402.044 522.814 402.68C522.73 403.796 522.688 404.978 522.688 406.226C522.688 406.466 522.598 406.658 522.418 406.802C522.238 406.946 522.022 407.018 521.77 407.018C521.47 407.018 521.32 406.826 521.32 406.442ZM537.261 395.138C537.561 395.138 537.813 395.27 538.017 395.534C538.221 395.798 538.485 396.344 538.809 397.172C539.565 399.128 540.303 402.194 541.023 406.37C541.035 406.418 541.041 406.49 541.041 406.586C541.041 406.67 540.981 406.766 540.861 406.874C540.753 406.97 540.591 407.018 540.375 407.018C540.171 407.018 539.997 406.97 539.853 406.874C539.709 406.766 539.613 406.598 539.565 406.37C539.517 406.13 539.427 405.668 539.295 404.984C539.007 403.46 538.815 402.668 538.719 402.608C538.575 402.524 538.095 402.434 537.279 402.338C536.475 402.242 535.941 402.194 535.677 402.194C535.413 402.194 535.257 402.218 535.209 402.266C534.993 402.458 534.699 403.916 534.327 406.64C534.279 406.868 534.051 406.982 533.643 406.982C533.235 406.982 533.031 406.808 533.031 406.46C533.031 405.596 533.349 403.946 533.985 401.51C534.621 399.074 535.149 397.46 535.569 396.668C536.097 395.648 536.661 395.138 537.261 395.138ZM537.189 397.136C537.009 397.136 536.697 397.67 536.253 398.738C535.809 399.794 535.587 400.448 535.587 400.7C535.587 400.76 535.599 400.802 535.623 400.826C535.719 400.922 536.097 401.006 536.757 401.078C537.417 401.15 537.855 401.186 538.071 401.186C538.287 401.186 538.407 401.174 538.431 401.15C538.455 401.114 538.467 401.018 538.467 400.862C538.467 400.694 538.305 400.034 537.981 398.882C537.657 397.718 537.393 397.136 537.189 397.136ZM547.418 406.262C546.986 406.766 546.44 407.018 545.78 407.018C545.12 407.018 544.55 406.814 544.07 406.406C543.062 405.626 542.558 404.432 542.558 402.824C542.558 401.564 542.906 400.556 543.602 399.8C544.298 399.032 545.156 398.648 546.176 398.648C547.196 398.648 547.892 398.996 548.264 399.692C548.588 400.304 548.75 401.228 548.75 402.464L548.714 403.94C548.714 404.636 548.744 405.602 548.804 406.838C548.876 408.062 548.912 408.986 548.912 409.61C548.912 410.642 548.654 411.398 548.138 411.878C547.634 412.37 546.86 412.616 545.816 412.616C545.192 412.616 544.556 412.484 543.908 412.22C543.26 411.956 542.936 411.65 542.936 411.302C542.936 411.05 543.002 410.858 543.134 410.726C543.278 410.594 543.44 410.528 543.62 410.528C543.8 410.528 544.202 410.66 544.826 410.924C545.462 411.188 545.918 411.32 546.194 411.32C547.058 411.32 547.49 410.612 547.49 409.196C547.49 407.78 547.466 406.802 547.418 406.262ZM547.4 402.464C547.4 401.588 547.268 400.976 547.004 400.628C546.752 400.268 546.35 400.088 545.798 400.088C545.246 400.088 544.802 400.34 544.466 400.844C544.13 401.348 543.962 401.99 543.962 402.77C543.962 403.538 544.118 404.15 544.43 404.606C544.754 405.062 545.246 405.29 545.906 405.29C546.566 405.29 546.992 405.008 547.184 404.444C547.328 403.988 547.4 403.328 547.4 402.464ZM553.04 398.666C553.676 398.666 554.282 398.852 554.858 399.224C555.434 399.596 555.722 400.058 555.722 400.61C555.722 401.15 555.488 401.678 555.02 402.194C554.552 402.698 553.928 403.004 553.148 403.112C552.812 403.16 552.308 403.184 551.636 403.184C551.768 404.204 552.026 404.876 552.41 405.2C552.53 405.332 552.692 405.398 552.896 405.398C553.64 405.398 554.264 405.164 554.768 404.696C555.272 404.216 555.632 403.976 555.848 403.976C555.944 403.976 556.088 404.066 556.28 404.246C556.472 404.426 556.568 404.594 556.568 404.75C556.568 405.062 556.19 405.512 555.434 406.1C555.098 406.376 554.69 406.61 554.21 406.802C553.742 406.982 553.304 407.072 552.896 407.072C551.852 407.072 551.084 406.4 550.592 405.056C550.28 404.228 550.124 403.316 550.124 402.32C550.124 401.324 550.358 400.466 550.826 399.746C551.294 399.026 552.032 398.666 553.04 398.666ZM553.13 399.908C552.674 399.908 552.284 400.166 551.96 400.682C551.84 400.862 551.726 401.27 551.618 401.906C553.298 401.906 554.138 401.492 554.138 400.664C554.138 400.16 553.802 399.908 553.13 399.908ZM558.483 406.442L558.285 399.134C558.285 398.906 558.363 398.72 558.519 398.576C558.675 398.432 558.831 398.36 558.987 398.36C559.371 398.36 559.593 398.522 559.653 398.846C559.701 399.17 559.725 399.506 559.725 399.854C560.373 399.002 561.183 398.576 562.155 398.576C563.643 398.576 564.387 400.274 564.387 403.67C564.387 403.982 564.387 404.456 564.387 405.092C564.387 405.716 564.351 406.172 564.279 406.46C564.195 406.82 563.937 407 563.505 407C563.217 407 563.073 406.808 563.073 406.424L563.091 405.416C563.091 404.024 563.043 403.076 562.947 402.572C562.863 402.056 562.779 401.648 562.695 401.348C562.491 400.7 562.161 400.376 561.705 400.376C561.105 400.376 560.685 400.592 560.445 401.024C560.181 401.492 560.025 402.044 559.977 402.68C559.893 403.796 559.851 404.978 559.851 406.226C559.851 406.466 559.761 406.658 559.581 406.802C559.401 406.946 559.185 407.018 558.933 407.018C558.633 407.018 558.483 406.826 558.483 406.442ZM566.568 398.594L567.468 398.612C567.672 398.612 567.786 398.606 567.81 398.594V394.904C567.822 394.7 567.924 394.526 568.116 394.382C568.308 394.238 568.488 394.166 568.656 394.166C568.824 394.166 568.956 394.22 569.052 394.328C569.16 394.436 569.208 394.604 569.196 394.832C569.184 395.06 569.178 396.308 569.178 398.576L571.284 398.504C571.644 398.504 571.824 398.714 571.824 399.134C571.824 399.446 571.728 399.68 571.536 399.836C571.356 399.992 571.158 400.076 570.942 400.088C570.738 400.1 570.534 400.106 570.33 400.106L569.232 400.088C569.232 400.58 569.28 401.552 569.376 403.004C569.484 404.456 569.568 405.398 569.628 405.83C569.688 406.25 569.7 406.526 569.664 406.658C569.628 406.778 569.562 406.862 569.466 406.91C569.31 406.982 569.1 407.018 568.836 407.018C568.572 407.018 568.416 406.874 568.368 406.586C568.128 405.014 567.966 402.854 567.882 400.106C567.774 400.118 567.36 400.124 566.64 400.124C565.92 400.124 565.56 399.914 565.56 399.494C565.56 398.894 565.896 398.594 566.568 398.594ZM579.694 406.964L577.372 406.91C577.24 406.406 577.162 404.138 577.138 400.106V398.828C577.138 397.808 577.234 397.034 577.426 396.506C577.618 395.966 578.02 395.534 578.632 395.21C578.944 395.054 579.376 394.976 579.928 394.976C580.492 394.976 580.924 395.012 581.224 395.084C582.028 395.252 582.574 395.564 582.862 396.02C583.162 396.476 583.312 397.088 583.312 397.856C583.312 398.924 583.03 399.71 582.466 400.214C582.754 400.25 583.042 400.394 583.33 400.646C583.618 400.898 583.852 401.156 584.032 401.42C584.344 401.9 584.5 402.554 584.5 403.382C584.5 404.678 584.104 405.602 583.312 406.154C582.532 406.694 581.326 406.964 579.694 406.964ZM578.578 398.198L578.614 400.25C578.638 400.25 578.842 400.226 579.226 400.178C579.61 400.118 579.934 400.058 580.198 399.998C581.41 399.71 582.016 399.02 582.016 397.928C582.016 397.388 581.854 396.992 581.53 396.74C581.218 396.488 580.804 396.362 580.288 396.362C579.64 396.362 579.202 396.476 578.974 396.704C578.878 396.8 578.8 396.884 578.74 396.956C578.68 397.016 578.638 397.118 578.614 397.262C578.59 397.406 578.572 397.508 578.56 397.568C578.56 397.628 578.56 397.742 578.56 397.91C578.572 398.078 578.578 398.174 578.578 398.198ZM582.628 402.032C582.508 401.9 582.322 401.78 582.07 401.672C581.818 401.564 581.452 401.51 580.972 401.51C580.504 401.51 579.7 401.588 578.56 401.744C578.56 403.616 578.59 404.882 578.65 405.542C580.054 405.542 581.038 405.452 581.602 405.272C582.166 405.08 582.544 404.852 582.736 404.588C582.94 404.312 583.042 404.024 583.042 403.724C583.042 403.412 583.036 403.196 583.024 403.076C583.024 402.944 582.988 402.77 582.916 402.554C582.856 402.326 582.76 402.152 582.628 402.032ZM588.709 398.666C589.345 398.666 589.951 398.852 590.527 399.224C591.103 399.596 591.391 400.058 591.391 400.61C591.391 401.15 591.157 401.678 590.689 402.194C590.221 402.698 589.597 403.004 588.817 403.112C588.481 403.16 587.977 403.184 587.305 403.184C587.437 404.204 587.695 404.876 588.079 405.2C588.199 405.332 588.361 405.398 588.565 405.398C589.309 405.398 589.933 405.164 590.437 404.696C590.941 404.216 591.301 403.976 591.517 403.976C591.613 403.976 591.757 404.066 591.949 404.246C592.141 404.426 592.237 404.594 592.237 404.75C592.237 405.062 591.859 405.512 591.103 406.1C590.767 406.376 590.359 406.61 589.879 406.802C589.411 406.982 588.973 407.072 588.565 407.072C587.521 407.072 586.753 406.4 586.261 405.056C585.949 404.228 585.793 403.316 585.793 402.32C585.793 401.324 586.027 400.466 586.495 399.746C586.963 399.026 587.701 398.666 588.709 398.666ZM588.799 399.908C588.343 399.908 587.953 400.166 587.629 400.682C587.509 400.862 587.395 401.27 587.287 401.906C588.967 401.906 589.807 401.492 589.807 400.664C589.807 400.16 589.471 399.908 588.799 399.908ZM595.395 401.168L595.539 405.416C595.539 405.944 595.515 406.25 595.467 406.334C595.443 406.55 595.371 406.718 595.251 406.838C595.143 406.958 594.927 407.018 594.603 407.018C594.447 407.018 594.321 406.922 594.225 406.73C594.129 406.526 594.075 406.298 594.063 406.046C593.979 403.934 593.865 401.954 593.721 400.106C593.589 398.246 593.523 396.518 593.523 394.922C593.523 394.67 593.607 394.472 593.775 394.328C593.943 394.184 594.141 394.112 594.369 394.112C594.705 394.112 594.903 394.4 594.963 394.976C595.035 395.552 595.077 396.272 595.089 397.136C595.113 398 595.137 398.63 595.161 399.026C595.761 398.714 596.361 398.558 596.961 398.558C598.353 398.558 599.235 399.17 599.607 400.394C599.823 401.09 599.931 401.984 599.931 403.076C599.931 403.436 599.895 404.006 599.823 404.786C599.763 405.554 599.727 406.052 599.715 406.28C599.703 406.508 599.601 406.688 599.409 406.82C599.229 406.94 599.031 407 598.815 407C598.479 407 598.311 406.82 598.311 406.46L598.437 403.328C598.437 403.064 598.425 402.626 598.401 402.014C598.377 401.402 598.251 400.916 598.023 400.556C597.807 400.196 597.423 400.016 596.871 400.016C595.887 400.016 595.395 400.4 595.395 401.168ZM606.23 398.594C606.758 398.594 607.022 399.044 607.022 399.944C607.022 400.04 607.022 400.142 607.022 400.25L606.986 401.51C606.974 401.906 606.968 402.296 606.968 402.68L607.238 406.748C607.238 407.048 606.932 407.198 606.32 407.198C606.284 407.198 606.194 407.198 606.05 407.198C605.918 407.198 605.822 407.144 605.762 407.036C605.714 406.928 605.708 406.796 605.744 406.64C605.792 406.484 605.78 406.31 605.708 406.118C605.156 406.706 604.424 407 603.512 407C601.82 407 600.974 405.692 600.974 403.076C600.974 401.624 601.244 400.526 601.784 399.782C602.336 399.038 603.122 398.666 604.142 398.666C604.622 398.666 605.102 398.75 605.582 398.918C605.738 398.702 605.954 398.594 606.23 398.594ZM604.358 400.232C603.674 400.232 603.164 400.43 602.828 400.826C602.492 401.222 602.324 401.948 602.324 403.004C602.324 404.78 602.804 405.668 603.764 405.668C604.016 405.668 604.292 405.554 604.592 405.326C604.904 405.098 605.12 404.84 605.24 404.552C605.468 403.904 605.582 403.196 605.582 402.428C605.582 401.66 605.486 401.102 605.294 400.754C605.114 400.406 604.802 400.232 604.358 400.232ZM614.25 398.504C614.418 398.504 614.544 398.564 614.628 398.684C614.712 398.792 614.754 398.912 614.754 399.044L614.736 399.224C614.232 400.508 613.86 401.552 613.62 402.356C613.464 402.92 613.344 403.34 613.26 403.616C613.188 403.892 613.062 404.378 612.882 405.074C612.702 405.77 612.582 406.22 612.522 406.424C612.354 406.832 612.06 407.036 611.64 407.036C611.436 407.036 611.292 406.904 611.208 406.64C610.824 405.44 610.26 404.084 609.516 402.572C608.772 401.06 608.346 400.196 608.238 399.98C608.142 399.752 608.094 399.548 608.094 399.368C608.094 399.188 608.172 399.014 608.328 398.846C608.496 398.678 608.682 398.594 608.886 398.594C609.09 398.594 609.264 398.702 609.408 398.918C609.54 399.182 609.912 399.92 610.524 401.132C611.148 402.344 611.586 403.298 611.838 403.994C611.85 403.922 611.892 403.772 611.964 403.544C612.576 401.42 613.074 399.902 613.458 398.99C613.662 398.666 613.926 398.504 614.25 398.504ZM617.011 395.624C617.227 395.624 617.431 395.726 617.623 395.93C617.815 396.134 617.911 396.35 617.911 396.578C617.911 396.794 617.803 397.016 617.587 397.244C617.383 397.472 617.167 397.586 616.939 397.586C616.711 397.586 616.501 397.49 616.309 397.298C616.129 397.106 616.039 396.86 616.039 396.56C616.039 395.984 616.351 395.672 616.975 395.624C616.987 395.624 616.999 395.624 617.011 395.624ZM617.767 405.056L617.785 406.316C617.785 406.544 617.695 406.736 617.515 406.892C617.335 407.036 617.143 407.108 616.939 407.108C616.639 407.108 616.483 406.958 616.471 406.658C616.315 402.83 616.237 400.712 616.237 400.304C616.237 399.896 616.255 399.398 616.291 398.81C616.315 398.594 616.453 398.486 616.705 398.486C617.341 398.486 617.701 398.744 617.785 399.26C617.821 399.524 617.839 399.734 617.839 399.89L617.767 401.024V405.056ZM623.215 398.612C624.079 398.612 624.787 399.026 625.339 399.854C625.903 400.682 626.185 401.678 626.185 402.842C626.185 403.994 625.897 404.978 625.321 405.794C624.757 406.61 624.001 407.018 623.053 407.018C622.117 407.018 621.361 406.604 620.785 405.776C620.209 404.936 619.921 404.006 619.921 402.986C619.921 401.678 620.185 400.634 620.713 399.854C621.277 399.026 622.111 398.612 623.215 398.612ZM622.999 400.088C622.495 400.088 622.081 400.352 621.757 400.88C621.433 401.408 621.271 401.966 621.271 402.554C621.271 403.466 621.451 404.162 621.811 404.642C622.171 405.122 622.579 405.362 623.035 405.362C623.851 405.362 624.373 405.008 624.601 404.3C624.697 403.964 624.745 403.544 624.745 403.04C624.745 401.072 624.163 400.088 622.999 400.088ZM627.433 399.296C627.481 399.092 627.583 398.924 627.739 398.792C627.895 398.648 628.051 398.576 628.207 398.576C628.375 398.576 628.501 398.606 628.585 398.666C628.681 398.726 628.735 398.78 628.747 398.828C628.771 398.876 628.795 398.96 628.819 399.08C628.747 400.016 628.711 400.862 628.711 401.618C628.711 402.362 628.801 403.22 628.981 404.192C629.161 405.152 629.359 405.632 629.575 405.632C629.899 405.632 630.307 405.452 630.799 405.092C631.303 404.732 631.663 404.354 631.879 403.958C631.735 402.23 631.663 400.748 631.663 399.512C631.663 399.26 631.741 399.044 631.897 398.864C632.065 398.684 632.263 398.594 632.491 398.594C632.863 398.594 633.049 398.846 633.049 399.35C633.049 400.202 633.109 401.468 633.229 403.148C633.361 404.828 633.493 405.896 633.625 406.352C633.649 406.448 633.661 406.562 633.661 406.694C633.661 406.814 633.577 406.928 633.409 407.036C633.253 407.156 633.043 407.216 632.779 407.216C632.527 407.216 632.359 407.072 632.275 406.784C632.251 406.544 632.191 406.184 632.095 405.704C631.255 406.58 630.409 407.018 629.557 407.018C629.161 407.018 628.807 406.868 628.495 406.568C628.183 406.268 627.937 405.86 627.757 405.344C627.445 404.348 627.289 403.412 627.289 402.536C627.289 401.66 627.337 400.58 627.433 399.296ZM637.178 404.372L637.196 406.226C637.196 406.442 637.094 406.64 636.89 406.82C636.698 407 636.506 407.09 636.314 407.09C636.038 407.09 635.864 406.874 635.792 406.442C635.78 406.346 635.732 405.47 635.648 403.814C635.564 402.146 635.402 400.838 635.162 399.89C635.054 399.434 635 399.164 635 399.08C635 398.684 635.24 398.486 635.72 398.486C635.924 398.486 636.086 398.564 636.206 398.72C636.326 398.876 636.398 399.038 636.422 399.206C636.458 399.362 636.488 399.578 636.512 399.854C636.536 400.13 636.554 400.304 636.566 400.376C636.818 399.776 637.196 399.326 637.7 399.026C638.204 398.726 638.756 398.576 639.356 398.576C640.34 398.576 640.832 398.828 640.832 399.332C640.832 399.584 640.742 399.788 640.562 399.944C640.394 400.088 640.196 400.16 639.968 400.16C638.948 400.16 638.228 400.484 637.808 401.132C637.388 401.78 637.178 402.86 637.178 404.372Z" fill="white"/>
<rect width="116" height="112" transform="translate(1029 609.727) rotate(-36.3325)" fill="black"/>
<path d="M1064.06 592.539C1070.06 606.406 1071.64 633.407 1057 645.483C1056.82 645.63 1056.99 645.962 1057.21 645.894C1068.54 642.396 1084.69 644.211 1095.16 649.217C1102.89 652.911 1119.89 668.41 1114.57 661.177C1108.48 652.903 1105.56 638.662 1105.86 629.156C1106.12 621.274 1109.15 612.96 1112.62 606.61C1114.64 602.891 1119.37 602.166 1114.12 603.522C1102.84 606.435 1093.8 606.268 1080.04 599.806C1073.61 596.792 1052.67 576.337 1063.95 592.357C1063.99 592.413 1064.03 592.477 1064.06 592.539Z" stroke="white" stroke-width="3" stroke-linecap="round"/>
<path d="M1112.87 574.011C1120.59 570.297 1126.83 564.321 1134.08 560.836" stroke="white" stroke-width="3" stroke-linecap="round"/>
<path d="M1111.99 553.625C1117.53 563.709 1125.94 569.595 1131.59 579.866" stroke="white" stroke-width="3" stroke-linecap="round"/>
<path d="M1167.26 641.707C1165.98 640.147 1164.56 638.709 1162.99 637.49C1160.59 635.631 1157.84 634.686 1155.11 634.085C1151.58 633.309 1148.06 632.947 1144.79 633.74C1144.48 633.817 1144.2 634.097 1143.9 634.216C1143.85 634.239 1144.76 632.59 1144.92 632.363C1146.35 630.378 1147.4 627.852 1147.7 625.242C1147.83 624.076 1148.17 622.956 1148.11 621.749C1148.01 619.9 1147.93 618.056 1147.69 616.194C1147.37 613.75 1147.05 611.153 1146.33 608.73C1146.18 608.239 1146.05 607.728 1145.85 607.249C1145.75 607.017 1145.01 605.777 1145.56 606.444C1147.74 609.119 1150.47 610.548 1153.35 611.987C1155.71 613.169 1158.26 614.271 1160.75 614.72C1163.43 615.202 1166.08 614.956 1168.65 614.685C1170.54 614.484 1172.17 613.814 1173.76 612.958C1174.44 612.596 1173.54 613.678 1173.44 613.899C1172.7 615.57 1171.94 617.231 1171.28 618.947C1170.59 620.751 1170.16 622.699 1169.74 624.631C1169.15 627.361 1169.2 630.337 1169.08 633.2C1169.03 634.506 1169.03 635.642 1169.21 636.949C1169.46 638.811 1169.76 640.742 1170.38 642.578C1170.5 642.923 1170.69 642.954 1170.57 643.303" stroke="white" stroke-width="3" stroke-linecap="round"/>
</g>
<defs>
<clipPath id="clip0_7574_3734">
<rect width="1374" height="915" fill="white"/>
</clipPath>
</defs>
</svg>
