<svg width="167" height="306" viewBox="0 0 167 306" fill="none" xmlns="http://www.w3.org/2000/svg">
<path d="M166.653 255.76C166.653 279 151.133 298.5 128.953 304.57C126.563 305.22 123.023 305.54 120.443 305.54C95.6835 305.533 70.9268 305.533 46.1735 305.54C41.1135 305.54 35.8635 304.43 31.0535 302.39C15.6868 295.85 5.79682 284.447 1.38349 268.18C0.24349 263.97 0.0434788 258.72 0.0434788 254.26C-0.0231879 186.093 -0.0131891 117.927 0.0734775 49.76C0.103478 26.33 15.7535 6.8 38.5135 1.34C42.1601 0.460004 47.1435 0.0200043 53.4635 0.0200043C73.0968 0.0133376 92.7335 0.00666667 112.373 0C118.933 0 124.09 0.44 127.843 1.32C143.937 5.08 155.477 14.64 162.463 30C165.843 37.42 166.653 45.98 166.653 55.17C166.68 122.03 166.68 188.893 166.653 255.76ZM63.3435 159.58C63.3636 159.307 63.4859 159.051 63.686 158.864C63.8862 158.677 64.1495 158.572 64.4235 158.57C73.4568 158.497 82.4535 158.483 91.4135 158.53C95.9068 158.55 99.1901 158.13 101.263 157.27C104.797 155.797 107.273 153.317 108.693 149.83C110.953 144.28 109.893 134 109.963 126.98C109.969 126.522 110.154 126.085 110.48 125.763C110.806 125.441 111.245 125.26 111.703 125.26H134.173C134.507 125.26 134.673 125.093 134.673 124.76V113.26C134.673 112.927 134.507 112.76 134.173 112.76H111.653C111.43 112.76 111.209 112.716 111.003 112.631C110.797 112.546 110.609 112.422 110.451 112.265C110.294 112.108 110.168 111.922 110.083 111.717C109.997 111.512 109.953 111.292 109.953 111.07C109.953 104.04 111.053 93.43 108.403 87.8C105.413 81.43 100.083 79.78 92.9735 79.77C83.5468 79.75 74.1868 79.75 64.8935 79.77C63.7135 79.77 63.1235 79.18 63.1235 78L63.0835 32.22C63.0835 32.098 63.0361 31.981 62.9517 31.8947C62.8673 31.8085 62.7528 31.76 62.6335 31.76H50.9135C50.5802 31.76 50.4135 31.93 50.4135 32.27L50.4035 48.02C50.4035 48.2485 50.3585 48.4748 50.271 48.6859C50.1836 48.897 50.0554 49.0888 49.8939 49.2504C49.7323 49.4119 49.5405 49.5401 49.3294 49.6276C49.1182 49.715 48.892 49.76 48.6635 49.76H32.1835C32.0562 49.76 31.9341 49.8116 31.8441 49.9035C31.7541 49.9954 31.7035 50.1201 31.7035 50.25V61.77C31.7035 62.0967 31.8635 62.26 32.1835 62.26H48.4035C48.6683 62.26 48.9305 62.3123 49.175 62.4139C49.4195 62.5156 49.6415 62.6645 49.8283 62.8522C50.0151 63.0399 50.1629 63.2627 50.2634 63.5077C50.3638 63.7528 50.4148 64.0152 50.4135 64.28C50.3935 68.78 50.3968 73.2967 50.4235 77.83C50.4735 85.56 52.2435 91.56 59.5835 94.26C61.5168 94.9667 64.7801 95.31 69.3735 95.29C78.0268 95.2433 86.6401 95.24 95.2135 95.28C95.7342 95.2826 96.2327 95.4914 96.6 95.8605C96.9673 96.2297 97.1735 96.7293 97.1735 97.25V146.98C97.1735 147.452 96.986 147.905 96.6521 148.239C96.3183 148.572 95.8656 148.76 95.3935 148.76C86.2868 148.76 77.0868 148.76 67.7935 148.76C63.7201 148.76 60.7001 149.203 58.7335 150.09C52.2835 152.98 50.4535 158.27 50.4235 165.4C50.3968 170.06 50.3935 174.76 50.4135 179.5C50.4202 181.007 49.6702 181.76 48.1635 181.76H32.1835C31.8568 181.76 31.6935 181.923 31.6935 182.25L31.7035 193.9C31.7035 193.996 31.7414 194.087 31.8089 194.155C31.8764 194.222 31.968 194.26 32.0635 194.26H48.4235C48.6857 194.26 48.9452 194.312 49.1873 194.412C49.4294 194.513 49.6493 194.661 49.8342 194.846C50.0191 195.032 50.1655 195.253 50.2649 195.495C50.3643 195.738 50.4148 195.998 50.4135 196.26C50.3868 200.8 50.3902 205.297 50.4235 209.75C50.4735 217.35 51.9935 223.03 58.9435 226.01C60.9102 226.857 63.9502 227.277 68.0635 227.27C77.2102 227.25 86.2568 227.25 95.2035 227.27C95.726 227.27 96.227 227.478 96.5965 227.847C96.9659 228.216 97.1735 228.718 97.1735 229.24V273.76C97.1735 274.093 97.3402 274.26 97.6735 274.26H109.433C109.767 274.26 109.933 274.09 109.933 273.75L109.943 259.63C109.943 259.134 110.139 258.658 110.488 258.308C110.837 257.957 111.31 257.76 111.803 257.76H134.173C134.306 257.76 134.433 257.707 134.527 257.614C134.621 257.52 134.673 257.393 134.673 257.26V245.76C134.673 245.427 134.507 245.26 134.173 245.26H111.453C111.068 245.26 110.698 245.108 110.425 244.836C110.151 244.564 109.996 244.195 109.993 243.81C109.96 237.897 109.863 232.05 109.703 226.27C109.453 217.55 103.113 212.24 94.6735 212.25C84.6735 212.263 74.8102 212.263 65.0835 212.25C64.82 212.25 64.5591 212.198 64.3158 212.097C64.0725 211.996 63.8516 211.847 63.6657 211.661C63.4799 211.474 63.3328 211.252 63.2328 211.008C63.1329 210.765 63.0822 210.504 63.0835 210.24C63.1768 198.5 63.1302 186.673 62.9435 174.76C62.8635 169.553 62.9968 164.493 63.3435 159.58Z" fill="url(#paint0_linear_496_90)"/>
<defs>
<linearGradient id="paint0_linear_496_90" x1="83.3368" y1="0" x2="83.3368" y2="305.54" gradientUnits="userSpaceOnUse">
<stop offset="0.735" stop-color="#6D797C"/>
<stop offset="0.9998" stop-color="#222526"/>
<stop offset="0.9999" stop-color="#3A4345"/>
</linearGradient>
</defs>
</svg>
